<svg width="147" height="128" viewBox="0 0 147 128" fill="none" xmlns="http://www.w3.org/2000/svg">
<path d="M131.82 22.75C141.038 22.75 148.05 31.0268 146.534 40.119L134.103 114.702C132.905 121.895 126.682 127.167 119.39 127.167H27.6095C20.3178 127.167 14.0946 121.895 12.8959 114.702L0.46532 40.119C-1.05006 31.0268 5.96144 22.75 15.179 22.75H131.82ZM118.25 0.375C122.369 0.375 125.708 3.71424 125.708 7.83333C125.708 11.9524 122.369 15.2917 118.25 15.2917H28.75C24.6309 15.2917 21.2917 11.9524 21.2917 7.83333C21.2917 3.71424 24.6309 0.375 28.75 0.375H118.25Z" fill="black"/>
</svg>
