<svg width="132" height="136" viewBox="0 0 132 136" fill="none" xmlns="http://www.w3.org/2000/svg">
<path d="M63.6736 0.406259C67.5724 0.40429 71.5076 0.74029 75.4392 1.43329C103.398 6.36337 125.339 28.3051 130.27 56.2636C135.199 84.2225 122.085 112.346 97.4984 126.541C86.7418 132.751 74.7744 135.727 62.8933 135.582C47.6175 135.395 32.4843 130.048 20.2512 119.782L30.3755 107.718C47.0934 121.745 70.7243 123.812 89.6237 112.901C108.523 101.99 118.549 80.4901 114.759 58.9989C110.969 37.5077 94.1948 20.7329 72.7033 16.9438C55.7536 13.9552 38.8004 19.5622 27.0381 31.336L42.7031 47H0.703125V5.00001L15.9084 20.206C28.5143 7.61254 45.712 0.416102 63.6736 0.406259Z" fill="black"/>
</svg>
