<svg width="2818" height="981" viewBox="0 0 2818 981" fill="none" xmlns="http://www.w3.org/2000/svg">
<path d="M40 52C40 45.3726 45.3726 40 52 40H2766C2772.63 40 2778 45.3726 2778 52V929C2778 935.627 2772.63 941 2766 941H52.0001C45.3727 941 40 935.627 40 929V52Z" fill="white"/>
<path d="M52 41H2766V39H52V41ZM2777 52V929H2779V52H2777ZM2766 940H52.0001V942H2766V940ZM41 929V52H39V929H41ZM52.0001 940C45.9249 940 41 935.075 41 929H39C39 936.18 44.8204 942 52.0001 942V940ZM2777 929C2777 935.075 2772.08 940 2766 940V942C2773.18 942 2779 936.18 2779 929H2777ZM2766 41C2772.07 41 2777 45.9249 2777 52H2779C2779 44.8203 2773.18 39 2766 39V41ZM52 39C44.8203 39 39 44.8203 39 52H41C41 45.9249 45.9249 41 52 41V39Z" fill="#E6E6E6"/>
<rect x="395" y="352" width="464" height="416" rx="80" fill="white"/>
<path d="M545.833 634.16H553.033L561.993 660.96L564.193 661.36V664H551.593V661.36L554.433 660.96L553.073 656.16H543.513L542.153 661L545.273 661.36V664H534.633L534.593 661.36L536.913 660.92L545.833 634.16ZM548.793 641.12L548.193 638.32L547.553 641.16L544.313 653.08H552.233L548.793 641.12ZM566.515 635.12L563.715 634.6V632.16L571.715 631.2H571.835L572.995 632.04V661L575.595 661.36V664H563.955V661.36L566.515 661V635.12ZM575.665 632.16L583.545 631.2H583.625L584.905 632V643.68C585.598 642.96 586.451 642.373 587.465 641.92C588.478 641.44 589.558 641.2 590.705 641.2C593.265 641.2 595.331 642.107 596.905 643.92C598.505 645.707 599.305 648.453 599.305 652.16C599.305 654.48 598.811 656.573 597.825 658.44C596.865 660.307 595.478 661.773 593.665 662.84C591.851 663.907 589.731 664.44 587.305 664.44C585.011 664.44 583.091 664.267 581.545 663.92C579.998 663.547 578.985 663.213 578.505 662.92V635L575.665 634.48V632.16ZM588.225 645.12C587.558 645.12 586.931 645.267 586.345 645.56C585.758 645.853 585.278 646.2 584.905 646.6V661.08C585.011 661.347 585.305 661.56 585.785 661.72C586.291 661.88 586.865 661.96 587.505 661.96C588.998 661.96 590.185 661.173 591.065 659.6C591.945 658.027 592.385 655.707 592.385 652.64C592.385 650.053 592.011 648.16 591.265 646.96C590.518 645.733 589.505 645.12 588.225 645.12ZM601.545 653C601.545 650.44 602.051 648.28 603.065 646.52C604.078 644.733 605.438 643.4 607.145 642.52C608.878 641.64 610.771 641.2 612.825 641.2C616.185 641.2 618.811 642.213 620.705 644.24C622.625 646.24 623.585 649.04 623.585 652.64C623.585 655.28 623.078 657.48 622.065 659.24C621.051 661 619.691 662.307 617.985 663.16C616.278 664.013 614.371 664.44 612.265 664.44C608.931 664.44 606.305 663.44 604.385 661.44C602.491 659.413 601.545 656.6 601.545 653ZM612.665 661.64C613.945 661.64 614.891 660.96 615.505 659.6C616.145 658.213 616.465 656.053 616.465 653.12C616.465 650 616.158 647.707 615.545 646.24C614.958 644.747 613.958 644 612.545 644C609.931 644 608.625 646.84 608.625 652.52C608.625 655.613 608.945 657.907 609.585 659.4C610.225 660.893 611.251 661.64 612.665 661.64ZM626.329 661.36L628.449 661V645.96L626.089 645.24V642.12L633.369 641.24L633.689 641.4L634.489 642.52V644.52C635.342 643.64 636.595 642.893 638.249 642.28C639.902 641.64 641.315 641.32 642.489 641.32C643.929 641.32 645.089 641.56 645.969 642.04C646.875 642.52 647.555 643.267 648.009 644.28C648.915 643.427 650.049 642.72 651.409 642.16C652.795 641.6 654.195 641.32 655.609 641.32C657.955 641.32 659.635 642 660.649 643.36C661.689 644.72 662.209 646.947 662.209 650.04V661L664.609 661.36V664H653.769V661.36L655.569 661V650.2C655.569 648.28 655.342 646.947 654.889 646.2C654.462 645.453 653.662 645.08 652.489 645.08C651.262 645.08 649.982 645.6 648.649 646.64C648.809 647.627 648.889 648.76 648.889 650.04V661L651.129 661.36V664H640.209V661.36L642.209 661V650.08C642.209 648.187 641.995 646.88 641.569 646.16C641.169 645.44 640.395 645.08 639.249 645.08C638.502 645.08 637.755 645.253 637.009 645.6C636.289 645.92 635.662 646.32 635.129 646.8V661L637.289 661.36V664H626.329V661.36ZM668.385 635.12L665.585 634.6V632.16L673.585 631.2H673.705L674.865 632.04V661L677.465 661.36V664H665.825V661.36L668.385 661V635.12ZM678.615 657.6C678.615 655.253 679.802 653.453 682.175 652.2C684.575 650.947 687.722 650.307 691.615 650.28V649.48C691.615 648.52 691.509 647.76 691.295 647.2C691.082 646.64 690.695 646.227 690.135 645.96C689.575 645.667 688.749 645.52 687.655 645.52C686.349 645.52 685.175 645.68 684.135 646C683.122 646.293 682.055 646.693 680.935 647.2L679.575 644.32C680.002 643.973 680.695 643.56 681.655 643.08C682.615 642.573 683.762 642.147 685.095 641.8C686.455 641.427 687.869 641.24 689.335 641.24C691.469 641.24 693.135 641.52 694.335 642.08C695.562 642.64 696.429 643.507 696.935 644.68C697.469 645.853 697.735 647.453 697.735 649.48V661.36H699.815V663.88C699.202 664.013 698.349 664.147 697.255 664.28C696.162 664.413 695.229 664.48 694.455 664.48C693.442 664.48 692.762 664.333 692.415 664.04C692.095 663.747 691.935 663.16 691.935 662.28V661.36C691.269 662.16 690.375 662.88 689.255 663.52C688.135 664.133 686.842 664.44 685.375 664.44C684.122 664.44 682.975 664.173 681.935 663.64C680.922 663.08 680.109 662.293 679.495 661.28C678.909 660.24 678.615 659.013 678.615 657.6ZM688.495 660.76C688.975 660.76 689.509 660.627 690.095 660.36C690.682 660.067 691.189 659.72 691.615 659.32V652.96C689.535 652.96 687.989 653.333 686.975 654.08C685.989 654.827 685.495 655.787 685.495 656.96C685.495 658.16 685.762 659.093 686.295 659.76C686.829 660.427 687.562 660.76 688.495 660.76ZM701.148 661.36L703.588 661V645.96L701.228 645.24V642.12L707.868 641.24H707.988L709.108 642.08V643.04L708.988 646.36H709.108C709.294 645.747 709.721 645.04 710.388 644.24C711.054 643.413 711.894 642.707 712.908 642.12C713.948 641.507 715.068 641.2 716.268 641.2C716.961 641.2 717.494 641.293 717.868 641.48V648.44C717.441 648.12 716.974 647.867 716.468 647.68C715.988 647.493 715.361 647.4 714.588 647.4C713.628 647.4 712.761 647.533 711.988 647.8C711.214 648.04 710.601 648.32 710.148 648.64V661L714.548 661.4V664H701.148V661.36Z" fill="black" fill-opacity="0.8"/>
<rect x="1835" y="392" width="464" height="416" rx="80" fill="white"/>
<path d="M2010.13 647.64L2007.17 647.08V644.28H2013.69C2014.12 644.28 2014.95 644.253 2016.17 644.2C2017.72 644.093 2019.12 644.04 2020.37 644.04C2023.25 644.04 2025.52 644.387 2027.17 645.08C2028.83 645.773 2030 646.773 2030.69 648.08C2031.39 649.36 2031.73 650.987 2031.73 652.96C2031.73 656.373 2030.69 659.027 2028.61 660.92C2026.53 662.813 2023.57 663.76 2019.73 663.76C2018.53 663.76 2017.61 663.72 2016.97 663.64V670.92L2022.25 671.36V674H2007.05V671.36L2010.13 670.96V647.64ZM2016.93 660.88C2017.47 661.013 2018.35 661.08 2019.57 661.08C2023.04 661.08 2024.77 658.427 2024.77 653.12C2024.77 650.907 2024.33 649.293 2023.45 648.28C2022.6 647.24 2021.31 646.72 2019.57 646.72C2018.83 646.72 2018.24 646.76 2017.81 646.84C2017.39 646.893 2017.09 646.933 2016.93 646.96V660.88ZM2033.21 671.36L2035.65 671V655.96L2033.29 655.24V652.12L2039.93 651.24H2040.05L2041.17 652.08V653.04L2041.05 656.36H2041.17C2041.36 655.747 2041.79 655.04 2042.45 654.24C2043.12 653.413 2043.96 652.707 2044.97 652.12C2046.01 651.507 2047.13 651.2 2048.33 651.2C2049.03 651.2 2049.56 651.293 2049.93 651.48V658.44C2049.51 658.12 2049.04 657.867 2048.53 657.68C2048.05 657.493 2047.43 657.4 2046.65 657.4C2045.69 657.4 2044.83 657.533 2044.05 657.8C2043.28 658.04 2042.67 658.32 2042.21 658.64V671L2046.61 671.4V674H2033.21V671.36ZM2051.63 663C2051.63 660.44 2052.14 658.28 2053.15 656.52C2054.17 654.733 2055.53 653.4 2057.23 652.52C2058.97 651.64 2060.86 651.2 2062.91 651.2C2066.27 651.2 2068.9 652.213 2070.79 654.24C2072.71 656.24 2073.67 659.04 2073.67 662.64C2073.67 665.28 2073.17 667.48 2072.15 669.24C2071.14 671 2069.78 672.307 2068.07 673.16C2066.37 674.013 2064.46 674.44 2062.35 674.44C2059.02 674.44 2056.39 673.44 2054.47 671.44C2052.58 669.413 2051.63 666.6 2051.63 663ZM2062.75 671.64C2064.03 671.64 2064.98 670.96 2065.59 669.6C2066.23 668.213 2066.55 666.053 2066.55 663.12C2066.55 660 2066.25 657.707 2065.63 656.24C2065.05 654.747 2064.05 654 2062.63 654C2060.02 654 2058.71 656.84 2058.71 662.52C2058.71 665.613 2059.03 667.907 2059.67 669.4C2060.31 670.893 2061.34 671.64 2062.75 671.64ZM2081.38 648.32C2080.34 648.32 2079.5 648.013 2078.86 647.4C2078.22 646.787 2077.9 646 2077.9 645.04C2077.9 643.92 2078.24 643 2078.94 642.28C2079.66 641.56 2080.62 641.2 2081.82 641.2C2082.99 641.2 2083.88 641.507 2084.5 642.12C2085.14 642.733 2085.46 643.52 2085.46 644.48C2085.46 645.627 2085.11 646.56 2084.42 647.28C2083.72 647.973 2082.72 648.32 2081.42 648.32H2081.38ZM2076.06 652.2L2083.94 651.24H2084.02L2085.22 652.08V673.6C2085.22 675.68 2084.76 677.48 2083.86 679C2082.98 680.52 2081.88 681.68 2080.58 682.48C2079.3 683.28 2078.06 683.693 2076.86 683.72C2075.52 683.72 2074.7 683.667 2074.38 683.56L2074.06 681.04C2074.8 681.04 2075.47 680.88 2076.06 680.56C2077.02 680.107 2077.71 679.2 2078.14 677.84C2078.56 676.507 2078.78 674.667 2078.78 672.32V656.04L2076.06 655.28V652.2ZM2088.37 667.6C2088.37 665.253 2089.56 663.453 2091.93 662.2C2094.33 660.947 2097.48 660.307 2101.37 660.28V659.48C2101.37 658.52 2101.27 657.76 2101.05 657.2C2100.84 656.64 2100.45 656.227 2099.89 655.96C2099.33 655.667 2098.51 655.52 2097.41 655.52C2096.11 655.52 2094.93 655.68 2093.89 656C2092.88 656.293 2091.81 656.693 2090.69 657.2L2089.33 654.32C2089.76 653.973 2090.45 653.56 2091.41 653.08C2092.37 652.573 2093.52 652.147 2094.85 651.8C2096.21 651.427 2097.63 651.24 2099.09 651.24C2101.23 651.24 2102.89 651.52 2104.09 652.08C2105.32 652.64 2106.19 653.507 2106.69 654.68C2107.23 655.853 2107.49 657.453 2107.49 659.48V671.36H2109.57V673.88C2108.96 674.013 2108.11 674.147 2107.01 674.28C2105.92 674.413 2104.99 674.48 2104.21 674.48C2103.2 674.48 2102.52 674.333 2102.17 674.04C2101.85 673.747 2101.69 673.16 2101.69 672.28V671.36C2101.03 672.16 2100.13 672.88 2099.01 673.52C2097.89 674.133 2096.6 674.44 2095.13 674.44C2093.88 674.44 2092.73 674.173 2091.69 673.64C2090.68 673.08 2089.87 672.293 2089.25 671.28C2088.67 670.24 2088.37 669.013 2088.37 667.6ZM2098.25 670.76C2098.73 670.76 2099.27 670.627 2099.85 670.36C2100.44 670.067 2100.95 669.72 2101.37 669.32V662.96C2099.29 662.96 2097.75 663.333 2096.73 664.08C2095.75 664.827 2095.25 665.787 2095.25 666.96C2095.25 668.16 2095.52 669.093 2096.05 669.76C2096.59 670.427 2097.32 670.76 2098.25 670.76ZM2110.42 663.04C2110.42 660.667 2110.9 658.587 2111.86 656.8C2112.82 655.013 2114.17 653.64 2115.9 652.68C2117.64 651.693 2119.64 651.2 2121.9 651.2C2123.02 651.2 2123.98 651.28 2124.78 651.44C2125.61 651.573 2126.45 651.773 2127.3 652.04C2128.08 652.253 2128.56 652.373 2128.74 652.4L2128.46 659.64H2124.42L2123.38 655.04C2123.3 654.693 2123.08 654.453 2122.7 654.32C2122.36 654.16 2121.93 654.08 2121.42 654.08C2120.17 654.08 2119.18 654.693 2118.46 655.92C2117.77 657.147 2117.42 659.187 2117.42 662.04C2117.42 664.76 2117.86 666.853 2118.74 668.32C2119.65 669.76 2120.86 670.48 2122.38 670.48C2124.36 670.48 2126.17 669.973 2127.82 668.96L2128.9 671.32C2128.26 672.04 2127.21 672.747 2125.74 673.44C2124.28 674.107 2122.65 674.44 2120.86 674.44C2117.37 674.44 2114.76 673.413 2113.02 671.36C2111.29 669.28 2110.42 666.507 2110.42 663.04ZM2137.68 674.36C2135.92 674.36 2134.62 673.96 2133.76 673.16C2132.94 672.333 2132.52 671.067 2132.52 669.36V655.12H2130.08V652.8L2130.88 652.48C2131.52 652.267 2132.08 652.04 2132.56 651.8C2133.1 651.293 2133.52 650.627 2133.84 649.8C2134.24 648.84 2134.68 647.493 2135.16 645.76H2138.88L2139.12 651.76H2144.84V655.12H2139.2V665.72C2139.2 667.187 2139.24 668.213 2139.32 668.8C2139.4 669.387 2139.55 669.773 2139.76 669.96C2140 670.12 2140.43 670.2 2141.04 670.2C2142.3 670.2 2143.48 669.987 2144.6 669.56L2145.44 672.08C2144.7 672.693 2143.59 673.227 2142.12 673.68C2140.66 674.133 2139.18 674.36 2137.68 674.36Z" fill="black" fill-opacity="0.8"/>
<rect x="1115" y="352" width="464" height="416" rx="80" fill="white"/>
<path d="M1292.4 604.16H1299.6L1308.56 630.96L1310.76 631.36V634H1298.16V631.36L1301 630.96L1299.64 626.16H1290.08L1288.72 631L1291.84 631.36V634H1281.2L1281.16 631.36L1283.48 630.92L1292.4 604.16ZM1295.36 611.12L1294.76 608.32L1294.12 611.16L1290.88 623.08H1298.8L1295.36 611.12ZM1313.09 605.12L1310.29 604.6V602.16L1318.29 601.2H1318.41L1319.57 602.04V631L1322.17 631.36V634H1310.53V631.36L1313.09 631V605.12ZM1322.24 602.16L1330.12 601.2H1330.2L1331.48 602V613.68C1332.17 612.96 1333.02 612.373 1334.04 611.92C1335.05 611.44 1336.13 611.2 1337.28 611.2C1339.84 611.2 1341.9 612.107 1343.48 613.92C1345.08 615.707 1345.88 618.453 1345.88 622.16C1345.88 624.48 1345.38 626.573 1344.4 628.44C1343.44 630.307 1342.05 631.773 1340.24 632.84C1338.42 633.907 1336.3 634.44 1333.88 634.44C1331.58 634.44 1329.66 634.267 1328.12 633.92C1326.57 633.547 1325.56 633.213 1325.08 632.92V605L1322.24 604.48V602.16ZM1334.8 615.12C1334.13 615.12 1333.5 615.267 1332.92 615.56C1332.33 615.853 1331.85 616.2 1331.48 616.6V631.08C1331.58 631.347 1331.88 631.56 1332.36 631.72C1332.86 631.88 1333.44 631.96 1334.08 631.96C1335.57 631.96 1336.76 631.173 1337.64 629.6C1338.52 628.027 1338.96 625.707 1338.96 622.64C1338.96 620.053 1338.58 618.16 1337.84 616.96C1337.09 615.733 1336.08 615.12 1334.8 615.12ZM1348.12 623C1348.12 620.44 1348.62 618.28 1349.64 616.52C1350.65 614.733 1352.01 613.4 1353.72 612.52C1355.45 611.64 1357.34 611.2 1359.4 611.2C1362.76 611.2 1365.38 612.213 1367.28 614.24C1369.2 616.24 1370.16 619.04 1370.16 622.64C1370.16 625.28 1369.65 627.48 1368.64 629.24C1367.62 631 1366.26 632.307 1364.56 633.16C1362.85 634.013 1360.94 634.44 1358.84 634.44C1355.5 634.44 1352.88 633.44 1350.96 631.44C1349.06 629.413 1348.12 626.6 1348.12 623ZM1359.24 631.64C1360.52 631.64 1361.46 630.96 1362.08 629.6C1362.72 628.213 1363.04 626.053 1363.04 623.12C1363.04 620 1362.73 617.707 1362.12 616.24C1361.53 614.747 1360.53 614 1359.12 614C1356.5 614 1355.2 616.84 1355.2 622.52C1355.2 625.613 1355.52 627.907 1356.16 629.4C1356.8 630.893 1357.82 631.64 1359.24 631.64ZM1372.9 631.36L1375.02 631V615.96L1372.66 615.24V612.12L1379.94 611.24L1380.26 611.4L1381.06 612.52V614.52C1381.91 613.64 1383.17 612.893 1384.82 612.28C1386.47 611.64 1387.89 611.32 1389.06 611.32C1390.5 611.32 1391.66 611.56 1392.54 612.04C1393.45 612.52 1394.13 613.267 1394.58 614.28C1395.49 613.427 1396.62 612.72 1397.98 612.16C1399.37 611.6 1400.77 611.32 1402.18 611.32C1404.53 611.32 1406.21 612 1407.22 613.36C1408.26 614.72 1408.78 616.947 1408.78 620.04V631L1411.18 631.36V634H1400.34V631.36L1402.14 631V620.2C1402.14 618.28 1401.91 616.947 1401.46 616.2C1401.03 615.453 1400.23 615.08 1399.06 615.08C1397.83 615.08 1396.55 615.6 1395.22 616.64C1395.38 617.627 1395.46 618.76 1395.46 620.04V631L1397.7 631.36V634H1386.78V631.36L1388.78 631V620.08C1388.78 618.187 1388.57 616.88 1388.14 616.16C1387.74 615.44 1386.97 615.08 1385.82 615.08C1385.07 615.08 1384.33 615.253 1383.58 615.6C1382.86 615.92 1382.23 616.32 1381.7 616.8V631L1383.86 631.36V634H1372.9V631.36ZM1235.63 664.16H1242.83L1251.79 690.96L1253.99 691.36V694H1241.39V691.36L1244.23 690.96L1242.87 686.16H1233.31L1231.95 691L1235.07 691.36V694H1224.43L1224.39 691.36L1226.71 690.92L1235.63 664.16ZM1238.59 671.12L1237.99 668.32L1237.35 671.16L1234.11 683.08H1242.03L1238.59 671.12ZM1256.31 665.12L1253.51 664.6V662.16L1261.51 661.2H1261.63L1262.79 662.04V691L1265.39 691.36V694H1253.75V691.36L1256.31 691V665.12ZM1267.22 691.36L1269.34 691V675.96L1266.98 675.24V672.12L1274.26 671.24L1274.58 671.4L1275.38 672.52V674.52C1276.23 673.64 1277.49 672.893 1279.14 672.28C1280.79 671.64 1282.21 671.32 1283.38 671.32C1284.82 671.32 1285.98 671.56 1286.86 672.04C1287.77 672.52 1288.45 673.267 1288.9 674.28C1289.81 673.427 1290.94 672.72 1292.3 672.16C1293.69 671.6 1295.09 671.32 1296.5 671.32C1298.85 671.32 1300.53 672 1301.54 673.36C1302.58 674.72 1303.1 676.947 1303.1 680.04V691L1305.5 691.36V694H1294.66V691.36L1296.46 691V680.2C1296.46 678.28 1296.23 676.947 1295.78 676.2C1295.35 675.453 1294.55 675.08 1293.38 675.08C1292.15 675.08 1290.87 675.6 1289.54 676.64C1289.7 677.627 1289.78 678.76 1289.78 680.04V691L1292.02 691.36V694H1281.1V691.36L1283.1 691V680.08C1283.1 678.187 1282.89 676.88 1282.46 676.16C1282.06 675.44 1281.29 675.08 1280.14 675.08C1279.39 675.08 1278.65 675.253 1277.9 675.6C1277.18 675.92 1276.55 676.32 1276.02 676.8V691L1278.18 691.36V694H1267.22V691.36ZM1306.64 687.6C1306.64 685.253 1307.82 683.453 1310.2 682.2C1312.6 680.947 1315.74 680.307 1319.64 680.28V679.48C1319.64 678.52 1319.53 677.76 1319.32 677.2C1319.1 676.64 1318.72 676.227 1318.16 675.96C1317.6 675.667 1316.77 675.52 1315.68 675.52C1314.37 675.52 1313.2 675.68 1312.16 676C1311.14 676.293 1310.08 676.693 1308.96 677.2L1307.6 674.32C1308.02 673.973 1308.72 673.56 1309.68 673.08C1310.64 672.573 1311.78 672.147 1313.12 671.8C1314.48 671.427 1315.89 671.24 1317.36 671.24C1319.49 671.24 1321.16 671.52 1322.36 672.08C1323.58 672.64 1324.45 673.507 1324.96 674.68C1325.49 675.853 1325.76 677.453 1325.76 679.48V691.36H1327.84V693.88C1327.22 694.013 1326.37 694.147 1325.28 694.28C1324.18 694.413 1323.25 694.48 1322.48 694.48C1321.46 694.48 1320.78 694.333 1320.44 694.04C1320.12 693.747 1319.96 693.16 1319.96 692.28V691.36C1319.29 692.16 1318.4 692.88 1317.28 693.52C1316.16 694.133 1314.86 694.44 1313.4 694.44C1312.14 694.44 1311 694.173 1309.96 693.64C1308.94 693.08 1308.13 692.293 1307.52 691.28C1306.93 690.24 1306.64 689.013 1306.64 687.6ZM1316.52 690.76C1317 690.76 1317.53 690.627 1318.12 690.36C1318.7 690.067 1319.21 689.72 1319.64 689.32V682.96C1317.56 682.96 1316.01 683.333 1315 684.08C1314.01 684.827 1313.52 685.787 1313.52 686.96C1313.52 688.16 1313.78 689.093 1314.32 689.76C1314.85 690.427 1315.58 690.76 1316.52 690.76ZM1334.13 690.68C1334.32 690.973 1334.74 691.24 1335.41 691.48C1336.1 691.72 1336.8 691.84 1337.49 691.84C1338.58 691.84 1339.41 691.613 1339.97 691.16C1340.56 690.68 1340.85 690.067 1340.85 689.32C1340.85 688.52 1340.48 687.867 1339.73 687.36C1338.98 686.827 1337.76 686.187 1336.05 685.44L1334.53 684.76C1332.8 683.987 1331.49 683.053 1330.61 681.96C1329.76 680.84 1329.33 679.427 1329.33 677.72C1329.33 676.493 1329.69 675.4 1330.41 674.44C1331.13 673.453 1332.17 672.68 1333.53 672.12C1334.89 671.56 1336.49 671.28 1338.33 671.28C1339.61 671.28 1340.72 671.36 1341.65 671.52C1342.58 671.68 1343.53 671.88 1344.49 672.12C1345.13 672.307 1345.61 672.413 1345.93 672.44V677.88H1342.37L1341.33 674.8C1341.2 674.56 1340.88 674.347 1340.37 674.16C1339.86 673.947 1339.29 673.84 1338.65 673.84C1337.64 673.84 1336.84 674.067 1336.25 674.52C1335.66 674.947 1335.37 675.533 1335.37 676.28C1335.37 677.133 1335.7 677.813 1336.37 678.32C1337.04 678.8 1338.1 679.373 1339.57 680.04L1340.41 680.4C1342.57 681.307 1344.26 682.293 1345.49 683.36C1346.72 684.4 1347.33 685.84 1347.33 687.68C1347.33 689.653 1346.54 691.28 1344.97 692.56C1343.4 693.813 1341.08 694.44 1338.01 694.44C1336.6 694.44 1335.34 694.32 1334.25 694.08C1333.16 693.867 1331.96 693.573 1330.65 693.2L1329.33 692.84V687.52H1333.13L1334.13 690.68ZM1351.18 665.12L1348.34 664.6V662.16L1356.38 661.2H1356.5L1357.66 662.04L1357.7 670.72L1357.38 674.28C1358.21 673.507 1359.3 672.827 1360.66 672.24C1362.02 671.627 1363.52 671.32 1365.14 671.32C1366.82 671.32 1368.13 671.627 1369.06 672.24C1370 672.853 1370.65 673.787 1371.02 675.04C1371.4 676.293 1371.58 677.96 1371.58 680.04V691L1374.02 691.36V694H1362.9V691.36L1365.02 691V680.08C1365.02 678.213 1364.82 676.92 1364.42 676.2C1364.02 675.453 1363.21 675.08 1361.98 675.08C1361.24 675.08 1360.49 675.253 1359.74 675.6C1359 675.92 1358.37 676.32 1357.86 676.8V691L1360.06 691.36V694H1349.1V691.36L1351.18 691V665.12ZM1382.33 694.36C1380.57 694.36 1379.27 693.96 1378.41 693.16C1377.59 692.333 1377.17 691.067 1377.17 689.36V675.12H1374.73V672.8L1375.53 672.48C1376.17 672.267 1376.73 672.04 1377.21 671.8C1377.75 671.293 1378.17 670.627 1378.49 669.8C1378.89 668.84 1379.33 667.493 1379.81 665.76H1383.53L1383.77 671.76H1389.49V675.12H1383.85V685.72C1383.85 687.187 1383.89 688.213 1383.97 688.8C1384.05 689.387 1384.2 689.773 1384.41 689.96C1384.65 690.12 1385.08 690.2 1385.69 690.2C1386.95 690.2 1388.13 689.987 1389.25 689.56L1390.09 692.08C1389.35 692.693 1388.24 693.227 1386.77 693.68C1385.31 694.133 1383.83 694.36 1382.33 694.36ZM1395.9 668.32C1394.86 668.32 1394.02 668.013 1393.38 667.4C1392.74 666.787 1392.42 666 1392.42 665.04C1392.42 663.92 1392.77 663 1393.46 662.28C1394.18 661.56 1395.14 661.2 1396.34 661.2C1397.54 661.2 1398.46 661.507 1399.1 662.12C1399.74 662.733 1400.06 663.52 1400.06 664.48C1400.06 665.627 1399.7 666.56 1398.98 667.28C1398.26 667.973 1397.25 668.32 1395.94 668.32H1395.9ZM1393.46 675.96L1390.78 675.2V672.2L1398.78 671.24H1398.86L1400.1 672.08V691L1402.5 691.36V694H1390.98V691.36L1393.46 691V675.96ZM1404.44 691.36L1406.88 691V675.96L1404.52 675.24V672.12L1411.16 671.24H1411.28L1412.4 672.08V673.04L1412.28 676.36H1412.4C1412.59 675.747 1413.01 675.04 1413.68 674.24C1414.35 673.413 1415.19 672.707 1416.2 672.12C1417.24 671.507 1418.36 671.2 1419.56 671.2C1420.25 671.2 1420.79 671.293 1421.16 671.48V678.44C1420.73 678.12 1420.27 677.867 1419.76 677.68C1419.28 677.493 1418.65 677.4 1417.88 677.4C1416.92 677.4 1416.05 677.533 1415.28 677.8C1414.51 678.04 1413.89 678.32 1413.44 678.64V691L1417.84 691.4V694H1404.44V691.36ZM1440.78 694.4C1439.82 694.4 1439.12 694.2 1438.7 693.8C1438.27 693.373 1438.06 692.76 1438.06 691.96V691.08C1437.42 691.96 1436.46 692.747 1435.18 693.44C1433.9 694.107 1432.6 694.44 1431.3 694.44C1428.68 694.44 1426.82 693.8 1425.7 692.52C1424.6 691.213 1424.06 689.04 1424.06 686V674.88L1422.18 674.36V671.8L1429.7 671.28H1429.74L1430.62 671.84V686.16C1430.62 687.893 1430.83 689.107 1431.26 689.8C1431.68 690.467 1432.44 690.8 1433.54 690.8C1435.03 690.8 1436.28 690.293 1437.3 689.28V674.88L1434.82 674.28V671.8L1442.74 671.28H1442.86L1443.82 671.84V691.24H1445.94V693.8C1445.03 693.987 1444.19 694.133 1443.42 694.24C1442.67 694.347 1441.79 694.4 1440.78 694.4ZM1445.56 671.76H1456.92V674.32L1454.4 674.8L1457.76 685.36L1458.8 689L1459.64 685.4L1462.96 674.8L1460.52 674.32V671.76H1469.76V674.32L1467.68 674.8L1460.4 694.32H1455.04L1447.12 674.8L1445.56 674.32V671.76Z" fill="black" fill-opacity="0.8"/>
<g clip-path="url(#clip0_0_1)" filter="url(#filter0_d_0_1)">
<path d="M684.82 437.75C694.038 437.75 701.05 446.027 699.534 455.119L687.103 529.702C685.905 536.895 679.682 542.167 672.39 542.167H580.61C573.318 542.167 567.095 536.895 565.896 529.702L553.465 455.119C551.95 446.027 558.961 437.75 568.179 437.75H684.82ZM671.25 415.375C675.369 415.375 678.708 418.714 678.708 422.833C678.708 426.952 675.369 430.292 671.25 430.292H581.75C577.631 430.292 574.292 426.952 574.292 422.833C574.292 418.714 577.631 415.375 581.75 415.375H671.25Z" fill="black"/>
</g>
<g filter="url(#filter1_d_0_1)">
<path d="M1344.67 420.406C1348.57 420.404 1352.51 420.74 1356.44 421.433C1384.4 426.363 1406.34 448.305 1411.27 476.264C1416.2 504.223 1403.08 532.346 1378.5 546.541C1367.74 552.751 1355.77 555.727 1343.89 555.582C1328.62 555.395 1313.48 550.048 1301.25 539.782L1311.38 527.718C1328.09 541.745 1351.72 543.812 1370.62 532.901C1389.52 521.99 1399.55 500.49 1395.76 478.999C1391.97 457.508 1375.19 440.733 1353.7 436.944C1336.75 433.955 1319.8 439.562 1308.04 451.336L1323.7 467H1281.7V425L1296.91 440.206C1309.51 427.613 1326.71 420.416 1344.67 420.406Z" fill="black"/>
</g>
<path d="M2023.23 444.703H2131.87V449.234H2023.23V444.703Z" fill="black" stroke="white" stroke-width="0.325521"/>
<path d="M2023.23 449.234H2127.34V557.867H2023.23V449.234Z" fill="white" stroke="white" stroke-width="0.325521"/>
<path d="M2127.34 444.703H2131.87V562.398H2127.34V444.703ZM2023.23 444.703H2027.77V562.398H2023.23V444.703Z" fill="black" stroke="white" stroke-width="0.325521"/>
<path d="M2023.23 557.867H2131.87V562.398H2023.23V557.867Z" fill="black" stroke="white" stroke-width="0.325521"/>
<path d="M2072.45 476.871H2080.85V535.133H2072.45V476.871ZM2037.73 476.871H2062.65V489.918H2037.73V476.871ZM2090.54 476.871H2115.46V489.918H2090.54V476.871ZM2090.54 499.469H2115.46V512.516H2090.54V499.469ZM2038.16 499.469H2063.08V512.516H2038.16V499.469ZM2090.54 522.086H2115.46V535.133H2090.54V522.086ZM2038.16 522.086H2063.08V535.133H2038.16V522.086Z" fill="black" stroke="white" stroke-width="0.325521"/>
<path d="M1151.15 265.636H1127.43L1163.58 160.909H1192.11L1228.22 265.636H1204.49L1178.26 184.841H1177.44L1151.15 265.636ZM1149.67 224.471H1205.72V241.756H1149.67V224.471ZM1258.88 160.909V265.636H1237.1V160.909H1258.88ZM1273.43 265.636V160.909H1295.22V200.284H1295.88C1296.83 198.17 1298.22 196.023 1300.02 193.841C1301.86 191.625 1304.25 189.784 1307.18 188.318C1310.15 186.818 1313.83 186.068 1318.23 186.068C1323.95 186.068 1329.24 187.568 1334.08 190.568C1338.92 193.534 1342.79 198.017 1345.69 204.017C1348.58 209.983 1350.03 217.466 1350.03 226.466C1350.03 235.227 1348.62 242.625 1345.79 248.659C1342.99 254.659 1339.18 259.21 1334.33 262.312C1329.53 265.381 1324.14 266.915 1318.18 266.915C1313.95 266.915 1310.35 266.216 1307.39 264.818C1304.45 263.42 1302.05 261.665 1300.18 259.551C1298.3 257.403 1296.87 255.239 1295.88 253.057H1294.91V265.636H1273.43ZM1294.76 226.363C1294.76 231.034 1295.4 235.108 1296.7 238.585C1297.99 242.062 1299.87 244.773 1302.32 246.716C1304.78 248.625 1307.76 249.579 1311.27 249.579C1314.82 249.579 1317.82 248.608 1320.27 246.665C1322.73 244.687 1324.58 241.96 1325.85 238.483C1327.14 234.971 1327.79 230.932 1327.79 226.363C1327.79 221.829 1327.16 217.841 1325.9 214.398C1324.64 210.954 1322.78 208.261 1320.32 206.318C1317.87 204.375 1314.85 203.403 1311.27 203.403C1307.73 203.403 1304.73 204.341 1302.27 206.216C1299.85 208.091 1297.99 210.75 1296.7 214.193C1295.4 217.636 1294.76 221.693 1294.76 226.363ZM1396.75 267.17C1388.8 267.17 1381.93 265.483 1376.14 262.108C1370.38 258.699 1365.93 253.96 1362.79 247.892C1359.65 241.79 1358.09 234.716 1358.09 226.67C1358.09 218.557 1359.65 211.466 1362.79 205.398C1365.93 199.295 1370.38 194.557 1376.14 191.182C1381.93 187.773 1388.8 186.068 1396.75 186.068C1404.69 186.068 1411.54 187.773 1417.3 191.182C1423.1 194.557 1427.56 199.295 1430.7 205.398C1433.84 211.466 1435.4 218.557 1435.4 226.67C1435.4 234.716 1433.84 241.79 1430.7 247.892C1427.56 253.96 1423.1 258.699 1417.3 262.108C1411.54 265.483 1404.69 267.17 1396.75 267.17ZM1396.85 250.295C1400.46 250.295 1403.48 249.273 1405.9 247.227C1408.32 245.148 1410.14 242.318 1411.37 238.738C1412.63 235.159 1413.26 231.085 1413.26 226.517C1413.26 221.949 1412.63 217.875 1411.37 214.295C1410.14 210.716 1408.32 207.886 1405.9 205.807C1403.48 203.727 1400.46 202.687 1396.85 202.687C1393.2 202.687 1390.13 203.727 1387.64 205.807C1385.19 207.886 1383.33 210.716 1382.07 214.295C1380.84 217.875 1380.23 221.949 1380.23 226.517C1380.23 231.085 1380.84 235.159 1382.07 238.738C1383.33 242.318 1385.19 245.148 1387.64 247.227C1390.13 249.273 1393.2 250.295 1396.85 250.295ZM1446.26 265.636V187.091H1467.02V200.949H1467.94C1469.58 196.346 1472.3 192.716 1476.12 190.057C1479.94 187.398 1484.51 186.068 1489.83 186.068C1495.21 186.068 1499.8 187.415 1503.58 190.108C1507.37 192.767 1509.89 196.381 1511.15 200.949H1511.97C1513.57 196.449 1516.47 192.852 1520.66 190.159C1524.89 187.432 1529.88 186.068 1535.64 186.068C1542.97 186.068 1548.92 188.403 1553.49 193.074C1558.09 197.71 1560.39 204.29 1560.39 212.812V265.636H1538.66V217.108C1538.66 212.744 1537.5 209.471 1535.18 207.29C1532.87 205.108 1529.97 204.017 1526.49 204.017C1522.54 204.017 1519.45 205.278 1517.23 207.801C1515.02 210.29 1513.91 213.579 1513.91 217.67V265.636H1492.79V216.648C1492.79 212.795 1491.68 209.727 1489.47 207.443C1487.29 205.159 1484.41 204.017 1480.83 204.017C1478.41 204.017 1476.22 204.631 1474.28 205.858C1472.37 207.051 1470.85 208.738 1469.73 210.92C1468.6 213.068 1468.04 215.591 1468.04 218.488V265.636H1446.26Z" fill="#1E1E1E"/>
<g clip-path="url(#clip1_0_1)">
<path d="M2609.07 162.929C2599.44 153.302 2586.63 148 2573 148C2559.37 148 2546.56 153.302 2536.93 162.929C2527.3 172.557 2522 185.367 2522 199C2522 212.633 2527.3 225.443 2536.93 235.071C2546.56 244.698 2559.37 250 2573 250C2586.63 250 2599.44 244.698 2609.07 235.071C2618.7 225.443 2624 212.633 2624 199C2624 185.367 2618.7 172.557 2609.07 162.929ZM2573 246.71C2546.69 246.71 2525.29 225.307 2525.29 199C2525.29 172.693 2546.69 151.29 2573 151.29C2599.31 151.29 2620.71 172.693 2620.71 199C2620.71 225.307 2599.31 246.71 2573 246.71Z" fill="black"/>
<path d="M2573 238.484C2551.23 238.484 2533.52 220.771 2533.52 199C2533.52 198.091 2532.78 197.355 2531.87 197.355C2530.96 197.355 2530.23 198.091 2530.23 199C2530.23 210.434 2534.67 221.178 2542.75 229.253C2550.82 237.327 2561.57 241.774 2573 241.774C2573.91 241.774 2574.65 241.037 2574.65 240.129C2574.65 239.22 2573.91 238.484 2573 238.484Z" fill="black"/>
<path d="M2573 159.516C2582.39 159.516 2591.48 162.859 2598.6 168.929C2598.91 169.193 2599.29 169.322 2599.67 169.322C2600.13 169.322 2600.6 169.126 2600.92 168.744C2601.51 168.052 2601.43 167.014 2600.74 166.425C2593.02 159.848 2583.17 156.226 2573 156.226C2572.09 156.226 2571.35 156.962 2571.35 157.871C2571.35 158.78 2572.09 159.516 2573 159.516Z" fill="black"/>
<path d="M2605.58 171.263C2604.99 170.572 2603.95 170.489 2603.26 171.078C2602.57 171.667 2602.48 172.706 2603.07 173.397C2609.14 180.521 2612.48 189.614 2612.48 199C2612.48 199.909 2613.22 200.645 2614.13 200.645C2615.04 200.645 2615.77 199.909 2615.77 199C2615.77 188.832 2612.15 178.982 2605.58 171.263Z" fill="black"/>
<path d="M2573 164.452C2572.09 164.452 2571.35 165.188 2571.35 166.097C2571.35 167.005 2572.09 167.742 2573 167.742C2590.24 167.742 2604.26 181.764 2604.26 199C2604.26 199.909 2604.99 200.645 2605.9 200.645C2606.81 200.645 2607.55 199.909 2607.55 199C2607.55 189.765 2603.96 181.087 2597.44 174.565C2590.91 168.043 2582.24 164.452 2573 164.452Z" fill="black"/>
<path d="M2557.97 230.119C2558.2 230.231 2558.44 230.284 2558.68 230.284C2559.29 230.284 2559.88 229.942 2560.16 229.354C2560.56 228.536 2560.22 227.553 2559.4 227.157C2548.51 221.892 2541.74 211.103 2541.74 199C2541.74 198.091 2541.01 197.355 2540.1 197.355C2539.19 197.355 2538.45 198.091 2538.45 199C2538.45 205.623 2540.33 212.057 2543.88 217.605C2547.33 223.006 2552.2 227.334 2557.97 230.119Z" fill="black"/>
<path d="M2573 230.258C2570.38 230.258 2567.78 229.935 2565.27 229.297C2564.39 229.073 2563.49 229.606 2563.27 230.487C2563.04 231.367 2563.58 232.263 2564.46 232.486C2567.23 233.191 2570.11 233.548 2573 233.548C2573.91 233.548 2574.65 232.812 2574.65 231.903C2574.65 230.995 2573.91 230.258 2573 230.258Z" fill="black"/>
<path d="M2573 222.032C2566.42 222.032 2560.15 219.216 2555.78 214.306C2555.18 213.627 2554.14 213.566 2553.46 214.17C2552.78 214.773 2552.72 215.813 2553.32 216.492C2558.31 222.104 2565.49 225.322 2573 225.322C2573.91 225.322 2574.65 224.586 2574.65 223.677C2574.65 222.769 2573.91 222.032 2573 222.032Z" fill="black"/>
<path d="M2550.87 211.588C2551.12 211.588 2551.37 211.534 2551.6 211.417C2552.42 211.014 2552.75 210.028 2552.35 209.213C2550.77 206.025 2549.97 202.589 2549.97 199C2549.97 198.091 2549.23 197.355 2548.32 197.355C2547.41 197.355 2546.68 198.091 2546.68 199C2546.68 203.1 2547.59 207.027 2549.4 210.673C2549.68 211.252 2550.27 211.588 2550.87 211.588Z" fill="black"/>
<path d="M2573 172.677C2572.09 172.677 2571.35 173.414 2571.35 174.323C2571.35 175.231 2572.09 175.968 2573 175.968C2585.7 175.968 2596.03 186.3 2596.03 199C2596.03 199.909 2596.77 200.645 2597.68 200.645C2598.59 200.645 2599.32 199.909 2599.32 199C2599.32 184.486 2587.51 172.677 2573 172.677Z" fill="black"/>
<path d="M2573 194.613C2570.58 194.613 2568.61 196.581 2568.61 199C2568.61 201.419 2570.58 203.387 2573 203.387C2575.42 203.387 2577.39 201.419 2577.39 199C2577.39 196.581 2575.42 194.613 2573 194.613ZM2573 200.097C2572.4 200.097 2571.9 199.605 2571.9 199C2571.9 198.395 2572.4 197.903 2573 197.903C2573.6 197.903 2574.1 198.395 2574.1 199C2574.1 199.605 2573.6 200.097 2573 200.097Z" fill="black"/>
<path d="M2573 180.793C2562.96 180.793 2554.79 188.961 2554.79 199C2554.79 209.039 2562.96 217.206 2573 217.206C2583.04 217.206 2591.21 209.039 2591.21 199C2591.21 188.961 2583.04 180.793 2573 180.793ZM2573 213.916C2564.78 213.916 2558.08 207.225 2558.08 199C2558.08 190.775 2564.78 184.084 2573 184.084C2581.22 184.084 2587.92 190.775 2587.92 199C2587.92 207.225 2581.22 213.916 2573 213.916Z" fill="black"/>
</g>
<path d="M2553.43 303.464C2549.85 303.464 2546.78 302.68 2544.22 301.112C2541.66 299.544 2539.72 297.4 2538.41 294.68C2537.1 291.96 2536.44 288.872 2536.44 285.416C2536.44 281.448 2537.19 278.072 2538.7 275.288C2540.2 272.504 2542.34 270.408 2545.13 269C2547.94 267.56 2551.27 266.84 2555.11 266.84C2557.32 266.84 2559.51 267 2561.69 267.32C2563.86 267.64 2565.7 267.976 2567.21 268.328L2566.63 277.592H2560.87L2559.53 271.256C2559.24 270.936 2558.71 270.664 2557.94 270.44C2557.21 270.184 2556.2 270.056 2554.92 270.056C2552.07 270.056 2549.86 271.32 2548.3 273.848C2546.73 276.344 2545.94 279.976 2545.94 284.744C2545.94 289.48 2546.6 293.24 2547.91 296.024C2549.26 298.776 2551.34 300.152 2554.15 300.152C2555.3 300.152 2556.34 300.008 2557.27 299.72C2558.23 299.4 2558.95 299 2559.43 298.52V288.488L2554.97 288.008V284.504H2569.94V288.008L2567.54 288.392V301.016C2567 301.048 2565.74 301.304 2563.75 301.784C2561.8 302.296 2560.04 302.696 2558.47 302.984C2556.9 303.304 2555.22 303.464 2553.43 303.464ZM2571.44 299.768L2575.13 299.288V271.256L2571.63 270.584V267.272H2579.02C2579.63 267.272 2580.28 267.256 2580.99 267.224C2581.72 267.192 2582.28 267.16 2582.67 267.128C2584.4 267 2585.87 266.936 2587.08 266.936C2590.51 266.936 2593.23 267.272 2595.24 267.944C2597.26 268.584 2598.72 269.608 2599.61 271.016C2600.54 272.392 2601 274.216 2601 276.488C2601 278.664 2600.43 280.696 2599.28 282.584C2598.12 284.472 2596.43 285.768 2594.19 286.472C2595.66 287.016 2596.89 288.04 2597.88 289.544C2598.91 291.016 2599.96 292.904 2601.05 295.208C2601.69 296.552 2602.2 297.56 2602.59 298.232C2602.97 298.872 2603.37 299.24 2603.79 299.336L2605.18 299.768V302.936H2596.06C2595.58 302.936 2595.08 302.424 2594.57 301.4C2594.06 300.376 2593.4 298.776 2592.6 296.6C2591.61 293.944 2590.75 291.896 2590.01 290.456C2589.31 288.984 2588.52 288.088 2587.66 287.768H2583.34V299.288L2587.61 299.768V302.936H2571.44V299.768ZM2587.04 284.648C2588.7 284.648 2590 284.008 2590.92 282.728C2591.85 281.416 2592.32 279.448 2592.32 276.824C2592.32 274.52 2591.85 272.84 2590.92 271.784C2590.03 270.696 2588.51 270.152 2586.36 270.152C2585.21 270.152 2584.2 270.232 2583.34 270.392V284.504C2583.76 284.6 2584.44 284.648 2585.4 284.648C2586.36 284.648 2586.91 284.648 2587.04 284.648Z" fill="#1E1E1E"/>
<rect x="43" y="43" width="60.9219" height="30" rx="3" fill="white"/>
<rect x="43.5" y="43.5" width="59.9219" height="29" rx="2.5" stroke="black" stroke-opacity="0.14902"/>
<path d="M54.3438 55C54.2969 54.6042 54.1068 54.2969 53.7734 54.0781C53.4401 53.8594 53.0313 53.75 52.5469 53.75C52.1927 53.75 51.8828 53.8073 51.6172 53.9219C51.3542 54.0365 51.1484 54.194 51 54.3945C50.8542 54.5951 50.7813 54.8229 50.7813 55.0781C50.7813 55.2917 50.832 55.4753 50.9336 55.6289C51.0378 55.7799 51.1706 55.9062 51.332 56.0078C51.4935 56.1068 51.6628 56.1888 51.8398 56.2539C52.0169 56.3164 52.1797 56.3672 52.3281 56.4062L53.1406 56.625C53.349 56.6797 53.5807 56.7552 53.8359 56.8516C54.0938 56.9479 54.3398 57.0794 54.5742 57.2461C54.8112 57.4102 55.0065 57.6211 55.1602 57.8789C55.3138 58.1367 55.3906 58.4531 55.3906 58.8281C55.3906 59.2604 55.2773 59.651 55.0508 60C54.8268 60.349 54.4987 60.6263 54.0664 60.832C53.6367 61.0378 53.1146 61.1406 52.5 61.1406C51.9271 61.1406 51.431 61.0482 51.0117 60.8633C50.5951 60.6784 50.2669 60.4206 50.0273 60.0898C49.7904 59.7591 49.6563 59.375 49.625 58.9375H50.625C50.651 59.2396 50.7526 59.4896 50.9297 59.6875C51.1094 59.8828 51.3359 60.0286 51.6094 60.125C51.8854 60.2187 52.1823 60.2656 52.5 60.2656C52.8698 60.2656 53.2018 60.2057 53.4961 60.0859C53.7904 59.9635 54.0234 59.7943 54.1953 59.5781C54.3672 59.3594 54.4531 59.1042 54.4531 58.8125C54.4531 58.5469 54.3789 58.3307 54.2305 58.1641C54.082 57.9974 53.8867 57.862 53.6445 57.7578C53.4023 57.6536 53.1406 57.5625 52.8594 57.4844L51.875 57.2031C51.25 57.0234 50.7552 56.7669 50.3906 56.4336C50.026 56.1003 49.8438 55.6641 49.8438 55.125C49.8438 54.6771 49.9648 54.2865 50.207 53.9531C50.4518 53.6172 50.7799 53.3568 51.1914 53.1719C51.6055 52.9844 52.0677 52.8906 52.5781 52.8906C53.0938 52.8906 53.5521 52.9831 53.9531 53.168C54.3542 53.3503 54.6719 53.6003 54.9062 53.918C55.1432 54.2357 55.2682 54.5964 55.2813 55H54.3438ZM59.374 61.125C58.7959 61.125 58.2972 60.9974 57.8779 60.7422C57.4613 60.4844 57.1396 60.125 56.9131 59.6641C56.6891 59.2005 56.5771 58.6615 56.5771 58.0469C56.5771 57.4323 56.6891 56.8906 56.9131 56.4219C57.1396 55.9505 57.4548 55.5833 57.8584 55.3203C58.2646 55.0547 58.7386 54.9219 59.2803 54.9219C59.5928 54.9219 59.9014 54.974 60.2061 55.0781C60.5107 55.1823 60.7881 55.3516 61.0381 55.5859C61.2881 55.8177 61.4873 56.125 61.6357 56.5078C61.7842 56.8906 61.8584 57.362 61.8584 57.9219V58.3125H57.2334V57.5156H60.9209C60.9209 57.1771 60.8532 56.875 60.7178 56.6094C60.585 56.3437 60.3949 56.1341 60.1475 55.9805C59.9027 55.8268 59.6136 55.75 59.2803 55.75C58.9131 55.75 58.5954 55.8411 58.3271 56.0234C58.0615 56.2031 57.8571 56.4375 57.7139 56.7266C57.5706 57.0156 57.499 57.3255 57.499 57.6562V58.1875C57.499 58.6406 57.5771 59.0247 57.7334 59.3398C57.8923 59.6523 58.1123 59.8906 58.3936 60.0547C58.6748 60.2161 59.0016 60.2969 59.374 60.2969C59.6162 60.2969 59.835 60.263 60.0303 60.1953C60.2282 60.125 60.3988 60.0208 60.542 59.8828C60.6852 59.7422 60.7959 59.5677 60.874 59.3594L61.7646 59.6094C61.6709 59.9115 61.5133 60.1771 61.292 60.4062C61.0706 60.6328 60.7972 60.8099 60.4717 60.9375C60.1462 61.0625 59.7803 61.125 59.374 61.125ZM65.6982 61.125C65.1357 61.125 64.6514 60.9922 64.2451 60.7266C63.8389 60.4609 63.5264 60.0951 63.3076 59.6289C63.0889 59.1628 62.9795 58.6302 62.9795 58.0312C62.9795 57.4219 63.0915 56.8841 63.3154 56.418C63.542 55.9492 63.8571 55.5833 64.2607 55.3203C64.667 55.0547 65.141 54.9219 65.6826 54.9219C66.1045 54.9219 66.4847 55 66.8232 55.1562C67.1618 55.3125 67.4391 55.5312 67.6553 55.8125C67.8714 56.0937 68.0055 56.4219 68.0576 56.7969H67.1357C67.0654 56.5234 66.9092 56.2812 66.667 56.0703C66.4274 55.8568 66.1045 55.75 65.6982 55.75C65.3389 55.75 65.0238 55.8437 64.7529 56.0312C64.4847 56.2161 64.2751 56.4779 64.124 56.8164C63.9756 57.1523 63.9014 57.5469 63.9014 58C63.9014 58.4635 63.9743 58.8672 64.1201 59.2109C64.2686 59.5547 64.4769 59.8216 64.7451 60.0117C65.016 60.2018 65.3337 60.2969 65.6982 60.2969C65.9378 60.2969 66.1553 60.2552 66.3506 60.1719C66.5459 60.0885 66.7113 59.9688 66.8467 59.8125C66.9821 59.6562 67.0785 59.4687 67.1357 59.25H68.0576C68.0055 59.6042 67.8766 59.9232 67.6709 60.207C67.4678 60.4883 67.1982 60.7122 66.8623 60.8789C66.529 61.043 66.141 61.125 65.6982 61.125ZM72.0146 55V55.7812H68.9053V55H72.0146ZM69.8115 53.5625H70.7334V59.2812C70.7334 59.5417 70.7712 59.737 70.8467 59.8672C70.9248 59.9948 71.0238 60.0807 71.1436 60.125C71.266 60.1667 71.3949 60.1875 71.5303 60.1875C71.6318 60.1875 71.7152 60.1823 71.7803 60.1719C71.8454 60.1589 71.8975 60.1484 71.9365 60.1406L72.124 60.9687C72.0615 60.9922 71.9743 61.0156 71.8623 61.0391C71.7503 61.0651 71.6084 61.0781 71.4365 61.0781C71.1761 61.0781 70.9209 61.0221 70.6709 60.9102C70.4235 60.7982 70.2178 60.6276 70.0537 60.3984C69.8923 60.1693 69.8115 59.8802 69.8115 59.5312V53.5625ZM73.4014 61V55H74.3232V61H73.4014ZM73.8701 54C73.6904 54 73.5355 53.9388 73.4053 53.8164C73.2777 53.694 73.2139 53.5469 73.2139 53.375C73.2139 53.2031 73.2777 53.056 73.4053 52.9336C73.5355 52.8112 73.6904 52.75 73.8701 52.75C74.0498 52.75 74.2035 52.8112 74.3311 52.9336C74.4613 53.056 74.5264 53.2031 74.5264 53.375C74.5264 53.5469 74.4613 53.694 74.3311 53.8164C74.2035 53.9388 74.0498 54 73.8701 54ZM78.4492 61.125C77.9076 61.125 77.4323 60.9961 77.0234 60.7383C76.6172 60.4805 76.2995 60.1198 76.0703 59.6562C75.8438 59.1927 75.7305 58.651 75.7305 58.0312C75.7305 57.4062 75.8438 56.8607 76.0703 56.3945C76.2995 55.9284 76.6172 55.5664 77.0234 55.3086C77.4323 55.0508 77.9076 54.9219 78.4492 54.9219C78.9909 54.9219 79.4648 55.0508 79.8711 55.3086C80.2799 55.5664 80.5977 55.9284 80.8242 56.3945C81.0534 56.8607 81.168 57.4062 81.168 58.0312C81.168 58.651 81.0534 59.1927 80.8242 59.6562C80.5977 60.1198 80.2799 60.4805 79.8711 60.7383C79.4648 60.9961 78.9909 61.125 78.4492 61.125ZM78.4492 60.2969C78.8607 60.2969 79.1992 60.1914 79.4648 59.9805C79.7305 59.7695 79.9271 59.4922 80.0547 59.1484C80.1823 58.8047 80.2461 58.4323 80.2461 58.0312C80.2461 57.6302 80.1823 57.2565 80.0547 56.9102C79.9271 56.5638 79.7305 56.2839 79.4648 56.0703C79.1992 55.8568 78.8607 55.75 78.4492 55.75C78.0378 55.75 77.6992 55.8568 77.4336 56.0703C77.168 56.2839 76.9714 56.5638 76.8438 56.9102C76.7161 57.2565 76.6523 57.6302 76.6523 58.0312C76.6523 58.4323 76.7161 58.8047 76.8438 59.1484C76.9714 59.4922 77.168 59.7695 77.4336 59.9805C77.6992 60.1914 78.0378 60.2969 78.4492 60.2969ZM83.4971 57.3906V61H82.5752V55H83.4658V55.9375H83.5439C83.6846 55.6328 83.8981 55.388 84.1846 55.2031C84.471 55.0156 84.8408 54.9219 85.2939 54.9219C85.7002 54.9219 86.0557 55.0052 86.3604 55.1719C86.665 55.3359 86.902 55.5859 87.0713 55.9219C87.2406 56.2552 87.3252 56.6771 87.3252 57.1875V61H86.4033V57.25C86.4033 56.7786 86.2809 56.4115 86.0361 56.1484C85.7913 55.8828 85.4554 55.75 85.0283 55.75C84.734 55.75 84.471 55.8138 84.2393 55.9414C84.0101 56.069 83.8291 56.2552 83.6963 56.5C83.5635 56.7448 83.4971 57.0417 83.4971 57.3906ZM92.0879 61V60.2969L94.7285 57.4062C95.0384 57.0677 95.2936 56.7734 95.4941 56.5234C95.6947 56.2708 95.8431 56.0339 95.9395 55.8125C96.0384 55.5885 96.0879 55.3542 96.0879 55.1094C96.0879 54.8281 96.0202 54.5846 95.8848 54.3789C95.752 54.1732 95.5697 54.0143 95.3379 53.9023C95.1061 53.7904 94.8457 53.7344 94.5566 53.7344C94.2493 53.7344 93.9811 53.7982 93.752 53.9258C93.5254 54.0508 93.3496 54.2266 93.2246 54.4531C93.1022 54.6797 93.041 54.9453 93.041 55.25H92.1191C92.1191 54.7812 92.2272 54.3698 92.4434 54.0156C92.6595 53.6615 92.9538 53.3854 93.3262 53.1875C93.7012 52.9896 94.1217 52.8906 94.5879 52.8906C95.0566 52.8906 95.472 52.9896 95.834 53.1875C96.196 53.3854 96.4798 53.6523 96.6855 53.9883C96.8913 54.3242 96.9941 54.6979 96.9941 55.1094C96.9941 55.4036 96.9408 55.6914 96.834 55.9727C96.7298 56.2513 96.5475 56.5625 96.2871 56.9062C96.0293 57.2474 95.6712 57.6641 95.2129 58.1562L93.416 60.0781V60.1406H97.1348V61H92.0879Z" fill="black"/>
<defs>
<filter id="filter0_d_0_1" x="533" y="393" width="187" height="187" filterUnits="userSpaceOnUse" color-interpolation-filters="sRGB">
<feFlood flood-opacity="0" result="BackgroundImageFix"/>
<feColorMatrix in="SourceAlpha" type="matrix" values="0 0 0 0 0 0 0 0 0 0 0 0 0 0 0 0 0 0 127 0" result="hardAlpha"/>
<feOffset dy="4"/>
<feGaussianBlur stdDeviation="2"/>
<feComposite in2="hardAlpha" operator="out"/>
<feColorMatrix type="matrix" values="0 0 0 0 0 0 0 0 0 0 0 0 0 0 0 0 0 0 0.25 0"/>
<feBlend mode="normal" in2="BackgroundImageFix" result="effect1_dropShadow_0_1"/>
<feBlend mode="normal" in="SourceGraphic" in2="effect1_dropShadow_0_1" result="shape"/>
</filter>
<filter id="filter1_d_0_1" x="1259" y="404" width="176" height="176" filterUnits="userSpaceOnUse" color-interpolation-filters="sRGB">
<feFlood flood-opacity="0" result="BackgroundImageFix"/>
<feColorMatrix in="SourceAlpha" type="matrix" values="0 0 0 0 0 0 0 0 0 0 0 0 0 0 0 0 0 0 127 0" result="hardAlpha"/>
<feOffset dy="4"/>
<feGaussianBlur stdDeviation="2"/>
<feComposite in2="hardAlpha" operator="out"/>
<feColorMatrix type="matrix" values="0 0 0 0 0 0 0 0 0 0 0 0 0 0 0 0 0 0 0.25 0"/>
<feBlend mode="normal" in2="BackgroundImageFix" result="effect1_dropShadow_0_1"/>
<feBlend mode="normal" in="SourceGraphic" in2="effect1_dropShadow_0_1" result="shape"/>
</filter>
<clipPath id="clip0_0_1">
<rect width="179" height="179" fill="white" transform="translate(537 393)"/>
</clipPath>
<clipPath id="clip1_0_1">
<rect width="102" height="102" fill="white" transform="translate(2522 148)"/>
</clipPath>
</defs>
</svg>
