<svg width="110" height="174" viewBox="0 0 110 174" fill="none" xmlns="http://www.w3.org/2000/svg">
<g clip-path="url(#clip0_24_121)" filter="url(#filter0_d_24_121)">
<path d="M91.0707 14.9293C81.4437 5.30203 68.6333 0 55 0C41.3667 0 28.5563 5.30203 18.9293 14.9293C9.30203 24.5566 4 37.3667 4 51C4 64.6333 9.30203 77.4434 18.9293 87.0707C28.5563 96.698 41.3667 102 55 102C68.6333 102 81.4437 96.698 91.0707 87.0707C100.698 77.4434 106 64.6333 106 51C106 37.3667 100.698 24.5566 91.0707 14.9293ZM55 98.7097C28.6928 98.7097 7.29032 77.3072 7.29032 51C7.29032 24.6928 28.6928 3.29032 55 3.29032C81.3072 3.29032 102.71 24.6928 102.71 51C102.71 77.3072 81.3072 98.7097 55 98.7097Z" fill="black"/>
<path d="M55 90.484C33.2286 90.484 15.5161 72.7715 15.5161 51.0001C15.5161 50.0916 14.7797 49.355 13.871 49.355C12.9622 49.355 12.2258 50.0916 12.2258 51.0001C12.2258 62.4345 16.6726 73.1784 24.7472 81.2529C32.8217 89.3274 43.5657 93.7743 55 93.7743C55.9088 93.7743 56.6452 93.0377 56.6452 92.1292C56.6452 91.2206 55.9088 90.484 55 90.484Z" fill="black"/>
<path d="M55 11.5159C64.3866 11.5159 73.4795 14.8589 80.6035 20.9289C80.9132 21.1927 81.2925 21.3219 81.6696 21.3219C82.1348 21.3219 82.5972 21.1256 82.9228 20.7437C83.5122 20.0521 83.429 19.0137 82.7374 18.4245C75.0188 11.8476 65.168 8.22559 55 8.22559C54.0912 8.22559 53.3548 8.96218 53.3548 9.87075C53.3548 10.7793 54.0912 11.5159 55 11.5159Z" fill="black"/>
<path d="M87.5759 23.2633C86.9865 22.5717 85.9483 22.4888 85.2567 23.0779C84.5653 23.6674 84.4822 24.7056 85.0713 25.3972C91.1411 32.5212 94.4839 41.6136 94.4839 51.0001C94.4839 51.9086 95.2202 52.6452 96.129 52.6452C97.0378 52.6452 97.7742 51.9086 97.7742 51.0001C97.7742 40.8323 94.1522 30.982 87.5759 23.2633Z" fill="black"/>
<path d="M55 16.4517C54.0912 16.4517 53.3548 17.1883 53.3548 18.0968C53.3548 19.0054 54.0912 19.742 55 19.742C72.2358 19.742 86.2581 33.7642 86.2581 51C86.2581 51.9086 86.9944 52.6452 87.9032 52.6452C88.812 52.6452 89.5484 51.9086 89.5484 51C89.5484 41.7646 85.9567 33.0869 79.435 26.565C72.9134 20.0432 64.2355 16.4517 55 16.4517Z" fill="black"/>
<path d="M39.965 82.1196C40.1957 82.231 40.4397 82.2841 40.6801 82.2841C41.2912 82.2841 41.8784 81.9419 42.1622 81.3547C42.558 80.5367 42.2153 79.5529 41.3974 79.1574C30.507 73.892 23.7419 63.103 23.7419 51.0001C23.7419 50.0916 23.0055 49.355 22.0968 49.355C21.188 49.355 20.4516 50.0916 20.4516 51.0001C20.4516 57.6236 22.3277 64.0572 25.8767 69.6056C29.3315 75.0066 34.2032 79.3338 39.965 82.1196Z" fill="black"/>
<path d="M55 82.2579C52.3814 82.2579 49.7796 81.9345 47.2678 81.2966C46.3877 81.0729 45.4919 81.6057 45.2683 82.4864C45.0448 83.3671 45.5774 84.2623 46.4581 84.4858C49.2345 85.1908 52.1083 85.5482 55 85.5482C55.9088 85.5482 56.6452 84.8116 56.6452 83.903C56.6452 82.9944 55.9088 82.2579 55 82.2579Z" fill="black"/>
<path d="M55 74.0323C48.424 74.0323 42.148 71.216 37.7809 66.3057C37.1768 65.627 36.1373 65.5658 35.4581 66.1697C34.7792 66.7734 34.7182 67.8133 35.3221 68.4922C40.3131 74.104 47.4854 77.3224 55 77.3224C55.9088 77.3224 56.6452 76.5858 56.6452 75.6772C56.6452 74.7686 55.9088 74.0323 55 74.0323Z" fill="black"/>
<path d="M32.8724 63.5887C33.1174 63.5887 33.3664 63.5339 33.6009 63.4176C34.4151 63.0146 34.7485 62.0278 34.3456 61.2135C32.768 58.0254 31.9678 54.5892 31.9678 51.0001C31.9678 50.0916 31.2314 49.355 30.3226 49.355C29.4138 49.355 28.6774 50.0916 28.6774 51.0001C28.6774 55.0999 29.5924 59.0272 31.3966 62.6729C31.6835 63.2526 32.2663 63.5887 32.8724 63.5887Z" fill="black"/>
<path d="M55 24.6772C54.0912 24.6772 53.3548 25.4138 53.3548 26.3224C53.3548 27.231 54.0912 27.9676 55 27.9676C67.7 27.9676 78.0322 38.2998 78.0322 50.9998C78.0322 51.9084 78.7686 52.645 79.6774 52.645C80.5862 52.645 81.3226 51.9084 81.3226 50.9998C81.3226 36.4856 69.5143 24.6772 55 24.6772Z" fill="black"/>
<path d="M55 46.6128C52.581 46.6128 50.6129 48.5808 50.6129 50.9999C50.6129 53.4189 52.581 55.387 55 55.387C57.4191 55.387 59.3871 53.4189 59.3871 50.9999C59.3871 48.5808 57.4191 46.6128 55 46.6128ZM55 52.0967C54.3953 52.0967 53.9032 51.6047 53.9032 50.9999C53.9032 50.3951 54.3953 49.9031 55 49.9031C55.6048 49.9031 56.0968 50.3951 56.0968 50.9999C56.0968 51.6047 55.6048 52.0967 55 52.0967Z" fill="black"/>
<path d="M55 32.7935C44.9608 32.7935 36.7935 40.9609 36.7935 50.9999C36.7935 61.0389 44.9608 69.2064 55 69.2064C65.0392 69.2064 73.2065 61.0389 73.2065 50.9999C73.2065 40.9609 65.0392 32.7935 55 32.7935ZM55 65.916C46.7753 65.916 40.0839 59.2246 40.0839 50.9999C40.0839 42.7752 46.7753 36.0838 55 36.0838C63.2247 36.0838 69.9161 42.7752 69.9161 50.9999C69.9161 59.2246 63.2247 65.916 55 65.916Z" fill="black"/>
</g>
<g filter="url(#filter1_d_24_121)">
<path d="M35.432 155.464C31.848 155.464 28.776 154.68 26.216 153.112C23.656 151.544 21.72 149.4 20.408 146.68C19.096 143.96 18.44 140.872 18.44 137.416C18.44 133.448 19.192 130.072 20.696 127.288C22.2 124.504 24.344 122.408 27.128 121C29.944 119.56 33.272 118.84 37.112 118.84C39.32 118.84 41.512 119 43.688 119.32C45.864 119.64 47.704 119.976 49.208 120.328L48.632 129.592H42.872L41.528 123.256C41.24 122.936 40.712 122.664 39.944 122.44C39.208 122.184 38.2 122.056 36.92 122.056C34.072 122.056 31.864 123.32 30.296 125.848C28.728 128.344 27.944 131.976 27.944 136.744C27.944 141.48 28.6 145.24 29.912 148.024C31.256 150.776 33.336 152.152 36.152 152.152C37.304 152.152 38.344 152.008 39.272 151.72C40.232 151.4 40.952 151 41.432 150.52V140.488L36.968 140.008V136.504H51.944V140.008L49.544 140.392V153.016C49 153.048 47.736 153.304 45.752 153.784C43.8 154.296 42.04 154.696 40.472 154.984C38.904 155.304 37.224 155.464 35.432 155.464ZM53.4354 151.768L57.1314 151.288V123.256L53.6274 122.584V119.272H61.0194C61.6274 119.272 62.2834 119.256 62.9874 119.224C63.7234 119.192 64.2834 119.16 64.6674 119.128C66.3954 119 67.8674 118.936 69.0834 118.936C72.5074 118.936 75.2274 119.272 77.2434 119.944C79.2594 120.584 80.7154 121.608 81.6114 123.016C82.5394 124.392 83.0034 126.216 83.0034 128.488C83.0034 130.664 82.4274 132.696 81.2754 134.584C80.1234 136.472 78.4274 137.768 76.1874 138.472C77.6594 139.016 78.8914 140.04 79.8834 141.544C80.9074 143.016 81.9634 144.904 83.0514 147.208C83.6914 148.552 84.2034 149.56 84.5874 150.232C84.9714 150.872 85.3714 151.24 85.7874 151.336L87.1794 151.768V154.936H78.0594C77.5794 154.936 77.0834 154.424 76.5714 153.4C76.0594 152.376 75.4034 150.776 74.6034 148.6C73.6114 145.944 72.7474 143.896 72.0114 142.456C71.3074 140.984 70.5234 140.088 69.6594 139.768H65.3394V151.288L69.6114 151.768V154.936H53.4354V151.768ZM69.0354 136.648C70.6994 136.648 71.9954 136.008 72.9234 134.728C73.8514 133.416 74.3154 131.448 74.3154 128.824C74.3154 126.52 73.8514 124.84 72.9234 123.784C72.0274 122.696 70.5074 122.152 68.3634 122.152C67.2114 122.152 66.2034 122.232 65.3394 122.392V136.504C65.7554 136.6 66.4434 136.648 67.4034 136.648C68.3634 136.648 68.9074 136.648 69.0354 136.648Z" fill="#1E1E1E"/>
</g>
<defs>
<filter id="filter0_d_24_121" x="0" y="0" width="110" height="110" filterUnits="userSpaceOnUse" color-interpolation-filters="sRGB">
<feFlood flood-opacity="0" result="BackgroundImageFix"/>
<feColorMatrix in="SourceAlpha" type="matrix" values="0 0 0 0 0 0 0 0 0 0 0 0 0 0 0 0 0 0 127 0" result="hardAlpha"/>
<feOffset dy="4"/>
<feGaussianBlur stdDeviation="2"/>
<feComposite in2="hardAlpha" operator="out"/>
<feColorMatrix type="matrix" values="0 0 0 0 0 0 0 0 0 0 0 0 0 0 0 0 0 0 0.25 0"/>
<feBlend mode="normal" in2="BackgroundImageFix" result="effect1_dropShadow_24_121"/>
<feBlend mode="normal" in="SourceGraphic" in2="effect1_dropShadow_24_121" result="shape"/>
</filter>
<filter id="filter1_d_24_121" x="14.44" y="118.84" width="76.7394" height="44.624" filterUnits="userSpaceOnUse" color-interpolation-filters="sRGB">
<feFlood flood-opacity="0" result="BackgroundImageFix"/>
<feColorMatrix in="SourceAlpha" type="matrix" values="0 0 0 0 0 0 0 0 0 0 0 0 0 0 0 0 0 0 127 0" result="hardAlpha"/>
<feOffset dy="4"/>
<feGaussianBlur stdDeviation="2"/>
<feComposite in2="hardAlpha" operator="out"/>
<feColorMatrix type="matrix" values="0 0 0 0 0 0 0 0 0 0 0 0 0 0 0 0 0 0 0.25 0"/>
<feBlend mode="normal" in2="BackgroundImageFix" result="effect1_dropShadow_24_121"/>
<feBlend mode="normal" in="SourceGraphic" in2="effect1_dropShadow_24_121" result="shape"/>
</filter>
<clipPath id="clip0_24_121">
<rect width="102" height="102" fill="white" transform="translate(4)"/>
</clipPath>
</defs>
</svg>
