<svg width="743" height="259" viewBox="0 0 743 259" fill="none" xmlns="http://www.w3.org/2000/svg">
<g filter="url(#filter0_d_25_123)">
<path d="M20.625 34L38.4375 86.125H39.1563L56.9687 34H67.4063L44.375 98H33.2188L10.1875 34H20.625ZM73.9624 98V50H83.3062V98H73.9624ZM78.6812 42.5937C77.0562 42.5937 75.6604 42.0521 74.4937 40.9687C73.3479 39.8646 72.7749 38.5521 72.7749 37.0312C72.7749 35.4896 73.3479 34.1771 74.4937 33.0937C75.6604 31.9896 77.0562 31.4375 78.6812 31.4375C80.3062 31.4375 81.6916 31.9896 82.8374 33.0937C84.0041 34.1771 84.5874 35.4896 84.5874 37.0312C84.5874 38.5521 84.0041 39.8646 82.8374 40.9687C81.6916 42.0521 80.3062 42.5937 78.6812 42.5937ZM103.284 69.5V98H93.9405V50H102.909V57.8125H103.503C104.607 55.2708 106.336 53.2292 108.69 51.6875C111.065 50.1458 114.055 49.375 117.659 49.375C120.93 49.375 123.795 50.0625 126.253 51.4375C128.711 52.7917 130.618 54.8125 131.972 57.5C133.326 60.1875 134.003 63.5104 134.003 67.4687V98H124.659V68.5937C124.659 65.1146 123.753 62.3958 121.94 60.4375C120.128 58.4583 117.638 57.4687 114.472 57.4687C112.305 57.4687 110.378 57.9375 108.69 58.875C107.024 59.8125 105.701 61.1875 104.722 63C103.763 64.7917 103.284 66.9583 103.284 69.5ZM144.598 98V50H153.942V98H144.598ZM149.317 42.5937C147.692 42.5937 146.296 42.0521 145.13 40.9687C143.984 39.8646 143.411 38.5521 143.411 37.0312C143.411 35.4896 143.984 34.1771 145.13 33.0937C146.296 31.9896 147.692 31.4375 149.317 31.4375C150.942 31.4375 152.327 31.9896 153.473 33.0937C154.64 34.1771 155.223 35.4896 155.223 37.0312C155.223 38.5521 154.64 39.8646 153.473 40.9687C152.327 42.0521 150.942 42.5937 149.317 42.5937ZM173.92 34V98H164.576V34H173.92ZM205.907 116V50H215.032V57.7812H215.814C216.355 56.7812 217.137 55.625 218.157 54.3125C219.178 53 220.595 51.8542 222.407 50.875C224.22 49.875 226.616 49.375 229.595 49.375C233.47 49.375 236.928 50.3542 239.97 52.3125C243.012 54.2708 245.397 57.0937 247.126 60.7812C248.876 64.4687 249.751 68.9062 249.751 74.0937C249.751 79.2812 248.887 83.7292 247.157 87.4375C245.428 91.125 243.053 93.9687 240.032 95.9687C237.012 97.9479 233.564 98.9375 229.689 98.9375C226.772 98.9375 224.387 98.4479 222.532 97.4687C220.699 96.4896 219.262 95.3437 218.22 94.0312C217.178 92.7187 216.376 91.5521 215.814 90.5312H215.251V116H205.907ZM215.064 74C215.064 77.375 215.553 80.3333 216.532 82.875C217.512 85.4167 218.928 87.4062 220.782 88.8437C222.637 90.2604 224.907 90.9687 227.595 90.9687C230.387 90.9687 232.72 90.2292 234.595 88.75C236.47 87.25 237.887 85.2187 238.845 82.6562C239.824 80.0937 240.314 77.2083 240.314 74C240.314 70.8333 239.835 67.9896 238.876 65.4687C237.939 62.9479 236.522 60.9583 234.626 59.5C232.751 58.0417 230.407 57.3125 227.595 57.3125C224.887 57.3125 222.595 58.0104 220.72 59.4062C218.866 60.8021 217.46 62.75 216.501 65.25C215.543 67.75 215.064 70.6667 215.064 74ZM267.628 34V98H258.284V34H267.628ZM292.231 99.0625C289.189 99.0625 286.439 98.5 283.981 97.375C281.522 96.2292 279.574 94.5729 278.137 92.4062C276.72 90.2396 276.012 87.5833 276.012 84.4375C276.012 81.7292 276.533 79.5 277.574 77.75C278.616 76 280.022 74.6146 281.793 73.5938C283.564 72.5729 285.543 71.8021 287.731 71.2813C289.918 70.7604 292.147 70.3646 294.418 70.0937C297.293 69.7604 299.627 69.4896 301.418 69.2812C303.21 69.0521 304.512 68.6875 305.324 68.1875C306.137 67.6875 306.543 66.875 306.543 65.75V65.5312C306.543 62.8021 305.772 60.6875 304.231 59.1875C302.71 57.6875 300.439 56.9375 297.418 56.9375C294.272 56.9375 291.793 57.6354 289.981 59.0312C288.189 60.4062 286.949 61.9375 286.262 63.625L277.481 61.625C278.522 58.7083 280.043 56.3542 282.043 54.5625C284.064 52.75 286.387 51.4375 289.012 50.625C291.637 49.7917 294.397 49.375 297.293 49.375C299.21 49.375 301.241 49.6042 303.387 50.0625C305.554 50.5 307.574 51.3125 309.449 52.5C311.345 53.6875 312.897 55.3854 314.106 57.5937C315.314 59.7812 315.918 62.625 315.918 66.125V98H306.793V91.4375H306.418C305.814 92.6458 304.908 93.8333 303.699 95C302.491 96.1667 300.939 97.1354 299.043 97.9062C297.147 98.6771 294.877 99.0625 292.231 99.0625ZM294.262 91.5625C296.845 91.5625 299.054 91.0521 300.887 90.0313C302.741 89.0104 304.147 87.6771 305.106 86.0312C306.085 84.3646 306.574 82.5833 306.574 80.6875V74.5C306.241 74.8333 305.595 75.1458 304.637 75.4375C303.699 75.7083 302.627 75.9479 301.418 76.1562C300.21 76.3437 299.033 76.5208 297.887 76.6875C296.741 76.8333 295.783 76.9583 295.012 77.0625C293.199 77.2917 291.543 77.6771 290.043 78.2187C288.564 78.7604 287.377 79.5417 286.481 80.5625C285.606 81.5625 285.168 82.8958 285.168 84.5625C285.168 86.875 286.022 88.625 287.731 89.8125C289.439 90.9792 291.616 91.5625 294.262 91.5625ZM362.396 61.7187L353.928 63.2187C353.573 62.1354 353.011 61.1042 352.24 60.125C351.49 59.1458 350.469 58.3437 349.178 57.7187C347.886 57.0937 346.271 56.7812 344.334 56.7812C341.688 56.7812 339.48 57.375 337.709 58.5625C335.938 59.7292 335.053 61.2396 335.053 63.0937C335.053 64.6979 335.646 65.9896 336.834 66.9687C338.021 67.9479 339.938 68.75 342.584 69.375L350.209 71.125C354.625 72.1458 357.917 73.7188 360.084 75.8438C362.25 77.9687 363.334 80.7292 363.334 84.125C363.334 87 362.5 89.5625 360.834 91.8125C359.188 94.0417 356.886 95.7917 353.928 97.0625C350.99 98.3333 347.584 98.9688 343.709 98.9688C338.334 98.9688 333.948 97.8229 330.553 95.5312C327.157 93.2187 325.073 89.9375 324.303 85.6875L333.334 84.3125C333.896 86.6667 335.053 88.4479 336.803 89.6562C338.553 90.8437 340.834 91.4375 343.646 91.4375C346.709 91.4375 349.157 90.8021 350.99 89.5312C352.823 88.2396 353.74 86.6667 353.74 84.8125C353.74 83.3125 353.178 82.0521 352.053 81.0313C350.948 80.0104 349.25 79.2396 346.959 78.7187L338.834 76.9375C334.355 75.9167 331.042 74.2917 328.896 72.0625C326.771 69.8333 325.709 67.0104 325.709 63.5937C325.709 60.7604 326.5 58.2812 328.084 56.1562C329.667 54.0312 331.855 52.375 334.646 51.1875C337.438 49.9792 340.636 49.375 344.24 49.375C349.428 49.375 353.511 50.5 356.49 52.75C359.469 54.9792 361.438 57.9687 362.396 61.7187ZM394.078 50V57.5H367.859V50H394.078ZM374.89 38.5H384.234V83.9062C384.234 85.7187 384.505 87.0833 385.046 88C385.588 88.8958 386.286 89.5104 387.14 89.8437C388.015 90.1562 388.963 90.3125 389.984 90.3125C390.734 90.3125 391.39 90.2604 391.953 90.1562C392.515 90.0521 392.953 89.9687 393.265 89.9062L394.953 97.625C394.411 97.8333 393.64 98.0417 392.64 98.25C391.64 98.4792 390.39 98.6042 388.89 98.625C386.432 98.6667 384.14 98.2292 382.015 97.3125C379.89 96.3958 378.171 94.9792 376.859 93.0625C375.546 91.1458 374.89 88.7396 374.89 85.8438V38.5ZM402.477 98V50H411.821V98H402.477ZM407.196 42.5937C405.571 42.5937 404.175 42.0521 403.009 40.9687C401.863 39.8646 401.29 38.5521 401.29 37.0312C401.29 35.4896 401.863 34.1771 403.009 33.0937C404.175 31.9896 405.571 31.4375 407.196 31.4375C408.821 31.4375 410.207 31.9896 411.352 33.0937C412.519 34.1771 413.102 35.4896 413.102 37.0312C413.102 38.5521 412.519 39.8646 411.352 40.9687C410.207 42.0521 408.821 42.5937 407.196 42.5937ZM431.799 69.5V98H422.456V50H431.424V57.8125H432.018C433.122 55.2708 434.851 53.2292 437.206 51.6875C439.581 50.1458 442.57 49.375 446.174 49.375C449.445 49.375 452.31 50.0625 454.768 51.4375C457.226 52.7917 459.133 54.8125 460.487 57.5C461.841 60.1875 462.518 63.5104 462.518 67.4687V98H453.174V68.5937C453.174 65.1146 452.268 62.3958 450.456 60.4375C448.643 58.4583 446.153 57.4687 442.987 57.4687C440.82 57.4687 438.893 57.9375 437.206 58.875C435.539 59.8125 434.216 61.1875 433.237 63C432.278 64.7917 431.799 66.9583 431.799 69.5ZM487.082 99.0625C484.04 99.0625 481.29 98.5 478.832 97.375C476.374 96.2292 474.426 94.5729 472.988 92.4062C471.572 90.2396 470.863 87.5833 470.863 84.4375C470.863 81.7292 471.384 79.5 472.426 77.75C473.467 76 474.874 74.6146 476.645 73.5938C478.415 72.5729 480.395 71.8021 482.582 71.2813C484.77 70.7604 486.999 70.3646 489.27 70.0937C492.145 69.7604 494.478 69.4896 496.27 69.2812C498.061 69.0521 499.363 68.6875 500.176 68.1875C500.988 67.6875 501.395 66.875 501.395 65.75V65.5312C501.395 62.8021 500.624 60.6875 499.082 59.1875C497.561 57.6875 495.29 56.9375 492.27 56.9375C489.124 56.9375 486.645 57.6354 484.832 59.0312C483.04 60.4062 481.801 61.9375 481.113 63.625L472.332 61.625C473.374 58.7083 474.895 56.3542 476.895 54.5625C478.915 52.75 481.238 51.4375 483.863 50.625C486.488 49.7917 489.249 49.375 492.145 49.375C494.061 49.375 496.092 49.6042 498.238 50.0625C500.405 50.5 502.426 51.3125 504.301 52.5C506.197 53.6875 507.749 55.3854 508.957 57.5937C510.165 59.7812 510.77 62.625 510.77 66.125V98H501.645V91.4375H501.27C500.665 92.6458 499.759 93.8333 498.551 95C497.342 96.1667 495.79 97.1354 493.895 97.9062C491.999 98.6771 489.728 99.0625 487.082 99.0625ZM489.113 91.5625C491.697 91.5625 493.905 91.0521 495.738 90.0313C497.592 89.0104 498.999 87.6771 499.957 86.0312C500.936 84.3646 501.426 82.5833 501.426 80.6875V74.5C501.092 74.8333 500.447 75.1458 499.488 75.4375C498.551 75.7083 497.478 75.9479 496.27 76.1562C495.061 76.3437 493.884 76.5208 492.738 76.6875C491.592 76.8333 490.634 76.9583 489.863 77.0625C488.051 77.2917 486.395 77.6771 484.895 78.2187C483.415 78.7604 482.228 79.5417 481.332 80.5625C480.457 81.5625 480.02 82.8958 480.02 84.5625C480.02 86.875 480.874 88.625 482.582 89.8125C484.29 90.9792 486.467 91.5625 489.113 91.5625Z" fill="#1E1E1E"/>
</g>
<g filter="url(#filter1_d_25_123)">
<path d="M54.9205 174.239C54.2614 172.17 53.375 170.318 52.2614 168.682C51.1705 167.023 49.8636 165.614 48.3409 164.455C46.8182 163.273 45.0795 162.375 43.125 161.761C41.1932 161.148 39.0682 160.841 36.75 160.841C32.8182 160.841 29.2727 161.852 26.1136 163.875C22.9545 165.898 20.4545 168.864 18.6136 172.773C16.7955 176.659 15.8864 181.42 15.8864 187.057C15.8864 192.716 16.8068 197.5 18.6477 201.409C20.4886 205.318 23.0114 208.284 26.2159 210.307C29.4205 212.33 33.0682 213.341 37.1591 213.341C40.9545 213.341 44.2614 212.568 47.0795 211.023C49.9205 209.477 52.1136 207.295 53.6591 204.477C55.2273 201.636 56.0114 198.295 56.0114 194.455L58.7386 194.966H38.7614V186.273H66.2045V194.216C66.2045 200.08 64.9545 205.17 62.4545 209.489C59.9773 213.784 56.5455 217.102 52.1591 219.443C47.7955 221.784 42.7955 222.955 37.1591 222.955C30.8409 222.955 25.2955 221.5 20.5227 218.591C15.7727 215.682 12.0682 211.557 9.40909 206.216C6.75 200.852 5.42045 194.489 5.42045 187.125C5.42045 181.557 6.19318 176.557 7.73864 172.125C9.28409 167.693 11.4545 163.932 14.25 160.841C17.0682 157.727 20.375 155.352 24.1705 153.716C27.9886 152.057 32.1591 151.227 36.6818 151.227C40.4545 151.227 43.9659 151.784 47.2159 152.898C50.4886 154.011 53.3977 155.591 55.9432 157.636C58.5114 159.682 60.6364 162.114 62.3182 164.932C64 167.727 65.1364 170.83 65.7273 174.239H54.9205ZM87.9988 222L72.5897 169.636H83.1238L93.3852 208.091H93.8965L104.192 169.636H114.726L124.953 207.92H125.465L135.658 169.636H146.192L130.817 222H120.419L109.783 184.193H108.999L98.3624 222H87.9988ZM168.992 223.159C165.674 223.159 162.674 222.545 159.992 221.318C157.31 220.068 155.185 218.261 153.617 215.898C152.071 213.534 151.299 210.636 151.299 207.205C151.299 204.25 151.867 201.818 153.003 199.909C154.14 198 155.674 196.489 157.606 195.375C159.537 194.261 161.696 193.42 164.083 192.852C166.469 192.284 168.901 191.852 171.378 191.557C174.515 191.193 177.06 190.898 179.015 190.67C180.969 190.42 182.39 190.023 183.276 189.477C184.162 188.932 184.606 188.045 184.606 186.818V186.58C184.606 183.602 183.765 181.295 182.083 179.659C180.424 178.023 177.946 177.205 174.651 177.205C171.219 177.205 168.515 177.966 166.537 179.489C164.583 180.989 163.231 182.659 162.481 184.5L152.901 182.318C154.037 179.136 155.696 176.568 157.878 174.614C160.083 172.636 162.617 171.205 165.481 170.318C168.344 169.409 171.356 168.955 174.515 168.955C176.606 168.955 178.821 169.205 181.162 169.705C183.526 170.182 185.731 171.068 187.776 172.364C189.844 173.659 191.537 175.511 192.856 177.92C194.174 180.307 194.833 183.409 194.833 187.227V222H184.878V214.841H184.469C183.81 216.159 182.821 217.455 181.503 218.727C180.185 220 178.492 221.057 176.424 221.898C174.356 222.739 171.878 223.159 168.992 223.159ZM171.208 214.977C174.026 214.977 176.435 214.42 178.435 213.307C180.458 212.193 181.992 210.739 183.037 208.943C184.106 207.125 184.64 205.182 184.64 203.114V196.364C184.276 196.727 183.571 197.068 182.526 197.386C181.503 197.682 180.333 197.943 179.015 198.17C177.696 198.375 176.412 198.568 175.162 198.75C173.912 198.909 172.867 199.045 172.026 199.159C170.049 199.409 168.242 199.83 166.606 200.42C164.992 201.011 163.696 201.864 162.719 202.977C161.765 204.068 161.287 205.523 161.287 207.341C161.287 209.864 162.219 211.773 164.083 213.068C165.946 214.341 168.321 214.977 171.208 214.977ZM216.491 152.182V222H206.298V152.182H216.491ZM228.092 222V169.636H238.285V222H228.092ZM233.24 161.557C231.467 161.557 229.944 160.966 228.671 159.784C227.421 158.58 226.796 157.148 226.796 155.489C226.796 153.807 227.421 152.375 228.671 151.193C229.944 149.989 231.467 149.386 233.24 149.386C235.012 149.386 236.524 149.989 237.774 151.193C239.046 152.375 239.683 153.807 239.683 155.489C239.683 157.148 239.046 158.58 237.774 159.784C236.524 160.966 235.012 161.557 233.24 161.557ZM265.125 223.159C261.806 223.159 258.806 222.545 256.125 221.318C253.443 220.068 251.318 218.261 249.75 215.898C248.204 213.534 247.431 210.636 247.431 207.205C247.431 204.25 248 201.818 249.136 199.909C250.272 198 251.806 196.489 253.738 195.375C255.67 194.261 257.829 193.42 260.216 192.852C262.602 192.284 265.034 191.852 267.511 191.557C270.647 191.193 273.193 190.898 275.147 190.67C277.102 190.42 278.522 190.023 279.409 189.477C280.295 188.932 280.738 188.045 280.738 186.818V186.58C280.738 183.602 279.897 181.295 278.216 179.659C276.556 178.023 274.079 177.205 270.784 177.205C267.352 177.205 264.647 177.966 262.67 179.489C260.716 180.989 259.363 182.659 258.613 184.5L249.034 182.318C250.17 179.136 251.829 176.568 254.011 174.614C256.216 172.636 258.75 171.205 261.613 170.318C264.477 169.409 267.488 168.955 270.647 168.955C272.738 168.955 274.954 169.205 277.295 169.705C279.659 170.182 281.863 171.068 283.909 172.364C285.977 173.659 287.67 175.511 288.988 177.92C290.306 180.307 290.966 183.409 290.966 187.227V222H281.011V214.841H280.602C279.943 216.159 278.954 217.455 277.636 218.727C276.318 220 274.625 221.057 272.556 221.898C270.488 222.739 268.011 223.159 265.125 223.159ZM267.341 214.977C270.159 214.977 272.568 214.42 274.568 213.307C276.591 212.193 278.125 210.739 279.17 208.943C280.238 207.125 280.772 205.182 280.772 203.114V196.364C280.409 196.727 279.704 197.068 278.659 197.386C277.636 197.682 276.466 197.943 275.147 198.17C273.829 198.375 272.545 198.568 271.295 198.75C270.045 198.909 269 199.045 268.159 199.159C266.181 199.409 264.375 199.83 262.738 200.42C261.125 201.011 259.829 201.864 258.852 202.977C257.897 204.068 257.42 205.523 257.42 207.341C257.42 209.864 258.352 211.773 260.216 213.068C262.079 214.341 264.454 214.977 267.341 214.977ZM326.543 222V152.182H351.429C356.838 152.182 361.327 153.114 364.895 154.977C368.486 156.841 371.168 159.42 372.94 162.716C374.713 165.989 375.6 169.773 375.6 174.068C375.6 178.341 374.702 182.102 372.906 185.352C371.134 188.58 368.452 191.091 364.861 192.886C361.293 194.682 356.804 195.58 351.395 195.58H332.543V186.511H350.44C353.85 186.511 356.622 186.023 358.759 185.045C360.918 184.068 362.497 182.648 363.497 180.784C364.497 178.92 364.997 176.682 364.997 174.068C364.997 171.432 364.486 169.148 363.463 167.216C362.463 165.284 360.884 163.807 358.725 162.784C356.588 161.739 353.781 161.216 350.304 161.216H337.077V222H326.543ZM361.009 190.5L378.259 222H366.259L349.35 190.5H361.009ZM407.399 223.057C402.24 223.057 397.797 221.955 394.07 219.75C390.365 217.523 387.502 214.398 385.479 210.375C383.479 206.33 382.479 201.591 382.479 196.159C382.479 190.795 383.479 186.068 385.479 181.977C387.502 177.886 390.32 174.693 393.934 172.398C397.57 170.102 401.82 168.955 406.684 168.955C409.638 168.955 412.502 169.443 415.274 170.42C418.047 171.398 420.536 172.932 422.74 175.023C424.945 177.114 426.684 179.83 427.956 183.17C429.229 186.489 429.865 190.523 429.865 195.273V198.886H388.24V191.25H419.877C419.877 188.568 419.331 186.193 418.24 184.125C417.149 182.034 415.615 180.386 413.638 179.182C411.684 177.977 409.388 177.375 406.752 177.375C403.888 177.375 401.388 178.08 399.252 179.489C397.138 180.875 395.502 182.693 394.343 184.943C393.206 187.17 392.638 189.591 392.638 192.205V198.17C392.638 201.67 393.252 204.648 394.479 207.102C395.729 209.557 397.468 211.432 399.695 212.727C401.922 214 404.524 214.636 407.502 214.636C409.434 214.636 411.195 214.364 412.786 213.818C414.377 213.25 415.752 212.409 416.911 211.295C418.07 210.182 418.956 208.807 419.57 207.17L429.218 208.909C428.445 211.75 427.059 214.239 425.059 216.375C423.081 218.489 420.593 220.136 417.593 221.318C414.615 222.477 411.218 223.057 407.399 223.057ZM461.12 223.057C456.052 223.057 451.688 221.909 448.029 219.614C444.393 217.295 441.597 214.102 439.643 210.034C437.688 205.966 436.711 201.307 436.711 196.057C436.711 190.739 437.711 186.045 439.711 181.977C441.711 177.886 444.529 174.693 448.165 172.398C451.802 170.102 456.086 168.955 461.018 168.955C464.995 168.955 468.54 169.693 471.654 171.17C474.768 172.625 477.279 174.67 479.188 177.307C481.12 179.943 482.268 183.023 482.631 186.545H472.711C472.165 184.091 470.915 181.977 468.961 180.205C467.029 178.432 464.438 177.545 461.188 177.545C458.347 177.545 455.858 178.295 453.722 179.795C451.608 181.273 449.961 183.386 448.779 186.136C447.597 188.864 447.006 192.091 447.006 195.818C447.006 199.636 447.586 202.932 448.745 205.705C449.904 208.477 451.54 210.625 453.654 212.148C455.79 213.67 458.302 214.432 461.188 214.432C463.12 214.432 464.87 214.08 466.438 213.375C468.029 212.648 469.358 211.614 470.427 210.273C471.518 208.932 472.279 207.318 472.711 205.432H482.631C482.268 208.818 481.165 211.841 479.324 214.5C477.483 217.159 475.018 219.25 471.927 220.773C468.858 222.295 465.256 223.057 461.12 223.057ZM561.303 222V169.636H571.155V177.955H571.7C572.655 175.136 574.337 172.92 576.746 171.307C579.178 169.67 581.928 168.852 584.996 168.852C585.632 168.852 586.382 168.875 587.246 168.92C588.132 168.966 588.825 169.023 589.325 169.091V178.841C588.916 178.727 588.189 178.602 587.143 178.466C586.098 178.307 585.053 178.227 584.007 178.227C581.598 178.227 579.45 178.739 577.564 179.761C575.7 180.761 574.223 182.159 573.132 183.955C572.041 185.727 571.496 187.75 571.496 190.023V222H561.303ZM613.762 223.023C609.534 223.023 605.762 221.943 602.443 219.784C599.148 217.602 596.557 214.5 594.671 210.477C592.807 206.432 591.875 201.58 591.875 195.92C591.875 190.261 592.818 185.42 594.705 181.398C596.614 177.375 599.227 174.295 602.546 172.159C605.864 170.023 609.625 168.955 613.83 168.955C617.08 168.955 619.693 169.5 621.671 170.591C623.671 171.659 625.216 172.909 626.307 174.341C627.421 175.773 628.284 177.034 628.898 178.125H629.512V152.182H639.705V222H629.75V213.852H628.898C628.284 214.966 627.398 216.239 626.239 217.67C625.102 219.102 623.534 220.352 621.534 221.42C619.534 222.489 616.943 223.023 613.762 223.023ZM616.012 214.33C618.943 214.33 621.421 213.557 623.443 212.011C625.489 210.443 627.034 208.273 628.08 205.5C629.148 202.727 629.682 199.5 629.682 195.818C629.682 192.182 629.159 189 628.114 186.273C627.068 183.545 625.534 181.42 623.512 179.898C621.489 178.375 618.989 177.614 616.012 177.614C612.943 177.614 610.387 178.409 608.341 180C606.296 181.591 604.75 183.761 603.705 186.511C602.682 189.261 602.171 192.364 602.171 195.818C602.171 199.318 602.693 202.466 603.739 205.261C604.784 208.057 606.33 210.273 608.375 211.909C610.443 213.523 612.989 214.33 616.012 214.33ZM691.38 182.42L682.141 184.057C681.755 182.875 681.141 181.75 680.3 180.682C679.482 179.614 678.368 178.739 676.959 178.057C675.55 177.375 673.789 177.034 671.675 177.034C668.789 177.034 666.38 177.682 664.448 178.977C662.516 180.25 661.55 181.898 661.55 183.92C661.55 185.67 662.198 187.08 663.493 188.148C664.789 189.216 666.88 190.091 669.766 190.773L678.084 192.682C682.902 193.795 686.493 195.511 688.857 197.83C691.221 200.148 692.402 203.159 692.402 206.864C692.402 210 691.493 212.795 689.675 215.25C687.88 217.682 685.368 219.591 682.141 220.977C678.936 222.364 675.221 223.057 670.993 223.057C665.13 223.057 660.346 221.807 656.641 219.307C652.936 216.784 650.664 213.205 649.823 208.568L659.675 207.068C660.289 209.636 661.55 211.58 663.459 212.898C665.368 214.193 667.857 214.841 670.925 214.841C674.266 214.841 676.936 214.148 678.936 212.761C680.936 211.352 681.936 209.636 681.936 207.614C681.936 205.977 681.323 204.602 680.096 203.489C678.891 202.375 677.039 201.534 674.539 200.966L665.675 199.023C660.789 197.909 657.175 196.136 654.834 193.705C652.516 191.273 651.357 188.193 651.357 184.466C651.357 181.375 652.221 178.67 653.948 176.352C655.675 174.034 658.061 172.227 661.107 170.932C664.152 169.614 667.641 168.955 671.573 168.955C677.232 168.955 681.686 170.182 684.936 172.636C688.186 175.068 690.334 178.33 691.38 182.42Z" fill="#087FCC"/>
</g>
<g filter="url(#filter2_d_25_123)">
<path d="M522.5 199.562C524.744 199.562 526.562 197.744 526.562 195.5C526.562 193.256 524.744 191.438 522.5 191.438C520.256 191.438 518.438 193.256 518.438 195.5C518.438 197.744 520.256 199.562 522.5 199.562Z" fill="black"/>
<path d="M522.5 163C504.551 163 490 177.551 490 195.5C490 213.449 504.551 228 522.5 228C540.449 228 555 213.449 555 195.5C555 177.551 540.449 163 522.5 163ZM511.237 219.348C505.724 216.734 501.266 212.276 498.652 206.763L506.204 203.742C507.965 207.208 510.791 210.035 514.258 211.796L511.237 219.348ZM531.269 200.867C530.511 202.308 529.307 203.511 527.867 204.269C518.29 209.307 508.693 199.709 513.731 190.133C514.489 188.692 515.693 187.489 517.133 186.731C526.71 181.693 536.307 191.291 531.269 200.867ZM538.796 187.258C537.035 183.792 534.208 180.965 530.742 179.204L533.763 171.652C539.276 174.266 543.733 178.724 546.348 184.237L538.796 187.258Z" fill="black"/>
</g>
<defs>
<filter id="filter0_d_25_123" x="6.1875" y="31.4375" width="508.582" height="92.5625" filterUnits="userSpaceOnUse" color-interpolation-filters="sRGB">
<feFlood flood-opacity="0" result="BackgroundImageFix"/>
<feColorMatrix in="SourceAlpha" type="matrix" values="0 0 0 0 0 0 0 0 0 0 0 0 0 0 0 0 0 0 127 0" result="hardAlpha"/>
<feOffset dy="4"/>
<feGaussianBlur stdDeviation="2"/>
<feComposite in2="hardAlpha" operator="out"/>
<feColorMatrix type="matrix" values="0 0 0 0 0 0 0 0 0 0 0 0 0 0 0 0 0 0 0.25 0"/>
<feBlend mode="normal" in2="BackgroundImageFix" result="effect1_dropShadow_25_123"/>
<feBlend mode="normal" in="SourceGraphic" in2="effect1_dropShadow_25_123" result="shape"/>
</filter>
<filter id="filter1_d_25_123" x="1.42046" y="149.386" width="694.982" height="81.7727" filterUnits="userSpaceOnUse" color-interpolation-filters="sRGB">
<feFlood flood-opacity="0" result="BackgroundImageFix"/>
<feColorMatrix in="SourceAlpha" type="matrix" values="0 0 0 0 0 0 0 0 0 0 0 0 0 0 0 0 0 0 127 0" result="hardAlpha"/>
<feOffset dy="4"/>
<feGaussianBlur stdDeviation="2"/>
<feComposite in2="hardAlpha" operator="out"/>
<feColorMatrix type="matrix" values="0 0 0 0 0 0 0 0 0 0 0 0 0 0 0 0 0 0 0.25 0"/>
<feBlend mode="normal" in2="BackgroundImageFix" result="effect1_dropShadow_25_123"/>
<feBlend mode="normal" in="SourceGraphic" in2="effect1_dropShadow_25_123" result="shape"/>
</filter>
<filter id="filter2_d_25_123" x="486" y="163" width="73" height="73" filterUnits="userSpaceOnUse" color-interpolation-filters="sRGB">
<feFlood flood-opacity="0" result="BackgroundImageFix"/>
<feColorMatrix in="SourceAlpha" type="matrix" values="0 0 0 0 0 0 0 0 0 0 0 0 0 0 0 0 0 0 127 0" result="hardAlpha"/>
<feOffset dy="4"/>
<feGaussianBlur stdDeviation="2"/>
<feComposite in2="hardAlpha" operator="out"/>
<feColorMatrix type="matrix" values="0 0 0 0 0 0 0 0 0 0 0 0 0 0 0 0 0 0 0.25 0"/>
<feBlend mode="normal" in2="BackgroundImageFix" result="effect1_dropShadow_25_123"/>
<feBlend mode="normal" in="SourceGraphic" in2="effect1_dropShadow_25_123" result="shape"/>
</filter>
</defs>
</svg>
