<svg width="337" height="69" viewBox="0 0 337 69" fill="none" xmlns="http://www.w3.org/2000/svg">
<path fill-rule="evenodd" clip-rule="evenodd" d="M60.5015 27.5264H31.1681C31.1681 30.5451 31.1681 36.5819 31.1494 39.6005H48.1473C47.496 42.6192 45.1865 46.8461 41.9235 48.9743C41.9235 48.9743 41.9172 48.9921 41.911 48.9891C37.5727 51.8236 31.8475 52.4668 27.5965 51.6216C20.9332 50.3115 15.6598 45.5296 13.5187 39.456C13.5312 39.4469 13.5406 39.3632 13.5499 39.3572C12.2098 35.5899 12.2098 30.5451 13.5499 27.5264H13.5468C15.2734 21.9781 20.7056 16.916 27.3783 15.5304C32.745 14.4045 38.8007 15.6234 43.2543 19.7469C43.8464 19.1733 51.4509 11.8262 52.0212 11.2285C36.806 -2.40691 12.4435 2.38963 3.32746 19.9976H3.32434C3.32434 19.9976 3.32748 19.9983 3.30878 20.0315C-1.20094 28.68 -1.01395 38.8708 3.33994 47.1058C3.32747 47.1148 3.31813 47.1203 3.30878 47.1293C7.2544 54.7062 14.435 60.517 23.0867 62.7297C32.2776 65.1145 43.9742 63.4845 51.8093 56.4722L51.8187 56.481C58.4571 50.5644 62.5896 40.4856 60.5015 27.5264Z" fill="#FF0000"/>
<g clip-path="url(#clip0_62_121)">
<path d="M167.25 0.869507C148.312 0.869507 132.964 16.0574 132.964 34.797C132.964 53.5367 148.312 68.7245 167.25 68.7245C186.188 68.7245 201.536 53.5367 201.536 34.797C201.536 16.0574 186.188 0.869507 167.25 0.869507ZM188.652 55.9619C185.866 58.7185 182.639 60.8788 179.036 62.3764C175.313 63.9402 171.348 64.7221 167.25 64.7221C163.165 64.7221 159.201 63.9269 155.464 62.3764C151.861 60.8655 148.62 58.7053 145.848 55.9619C143.062 53.2053 140.879 50.0114 139.366 46.4463C137.785 42.762 136.982 38.8392 136.982 34.797C136.982 30.7549 137.785 26.832 139.352 23.1344C140.879 19.5694 143.062 16.3622 145.835 13.6188C148.634 10.8622 151.861 8.70199 155.464 7.19115C159.201 5.64056 163.165 4.84539 167.25 4.84539C171.335 4.84539 175.299 5.64056 179.036 7.19115C182.639 8.70199 185.88 10.8622 188.652 13.6056C191.438 16.3622 193.621 19.5561 195.134 23.1212C196.715 26.8055 197.505 30.7284 197.505 34.7838C197.505 38.8259 196.701 42.7488 195.134 46.4463C193.608 50.0114 191.425 53.2186 188.652 55.9619Z" fill="#001EFF" stroke="#001EFF" stroke-width="1.5625"/>
<path d="M171.777 23.2271C173.156 23.2271 174.63 23.6512 174.63 23.6512L175.514 18.4561C175.514 18.4561 173.639 17.8199 169.165 17.8199C166.42 17.8199 164.826 18.8537 163.661 20.3778C162.562 21.8223 162.522 24.1416 162.522 25.6392V29.0452H158.973V34.1211H162.522V51.7475H169.165V34.1211H174.429L174.817 29.0452H169.165V25.0826C169.165 23.7175 170.397 23.2271 171.777 23.2271Z" fill="#001EFF" stroke="#001EFF" stroke-width="1.5625"/>
</g>
<g clip-path="url(#clip1_62_121)">
<path d="M316.912 0.869507H286.023C274.991 0.869507 266.166 9.35138 266.166 19.9537V49.6403C266.166 60.2426 274.991 68.7245 286.023 68.7245H316.912C327.944 68.7245 336.77 60.2426 336.77 49.6403V19.9537C336.77 9.35138 327.944 0.869507 316.912 0.869507Z" fill="#0097D3"/>
<path d="M292.833 49.6007C292.833 50.8214 291.969 51.6351 290.674 51.6351H282.039C280.744 51.6351 279.88 50.8214 279.88 49.6007V25.1872C279.88 23.9666 280.744 23.1528 282.039 23.1528H290.674C291.969 23.1528 292.833 23.9666 292.833 25.1872V49.6007ZM286.356 21.1183C282.687 21.1183 279.88 18.4736 279.88 15.015C279.88 11.5564 282.687 8.91162 286.356 8.91162C290.026 8.91162 292.833 11.5564 292.833 15.015C292.833 18.4736 290.026 21.1183 286.356 21.1183ZM323.055 49.6007C323.055 50.8214 322.192 51.6351 320.897 51.6351H314.42C313.125 51.6351 312.262 50.8214 312.262 49.6007V42.4801V40.4456V36.3767C312.262 34.7492 310.75 33.3251 309.023 33.3251C307.296 33.3251 305.785 34.7492 305.785 36.3767V40.4456V42.4801V49.6007C305.785 50.8214 304.922 51.6351 303.627 51.6351H297.15C295.855 51.6351 294.991 50.8214 294.991 49.6007V25.1872C294.991 23.9666 295.855 23.1528 297.15 23.1528H305.785C306.433 23.1528 306.865 23.3562 307.296 23.7631C308.592 23.3562 309.887 23.1528 311.182 23.1528C317.658 23.1528 323.055 28.2389 323.055 34.3423V49.6007Z" fill="white"/>
</g>
<defs>
<clipPath id="clip0_62_121">
<rect width="68.5725" height="67.855" fill="white" transform="translate(132.964 0.869507)"/>
</clipPath>
<clipPath id="clip1_62_121">
<rect width="70.6043" height="67.855" fill="white" transform="translate(266.166 0.869507)"/>
</clipPath>
</defs>
</svg>
