<svg width="48" height="48" viewBox="0 0 48 48" fill="none" xmlns="http://www.w3.org/2000/svg">
<path d="M20 18C21.1046 18 22 18.8954 22 20C22 21.1046 21.1046 22 20 22C18.8955 22 18.0001 21.1046 18.0001 20C18.0001 18.8954 18.8955 18 20 18Z" fill="black"/>
<path d="M26 28C26 29.1046 26.8956 30 28 30C29.1046 30 30 29.1046 30 28C30 26.8954 29.1046 26 28 26C26.8956 26 26 26.8954 26 28Z" fill="black"/>
<path d="M21.4142 29.4142L29.4142 21.4142C30.1954 20.6332 30.1954 19.3668 29.4142 18.5858C28.6332 17.8047 27.367 17.8047 26.5858 18.5858L18.5859 26.5858C17.8048 27.3668 17.8048 28.6332 18.5859 29.4142C19.3669 30.1952 20.6332 30.1952 21.4142 29.4142Z" fill="black"/>
<path fill-rule="evenodd" clip-rule="evenodd" d="M32.6234 8.1429L30.3416 8.69006L29.115 6.6897C26.7738 2.8715 21.2262 2.8715 18.8851 6.6897L17.6585 8.69006L15.3767 8.1429C11.0214 7.0985 7.09862 11.0213 8.14302 15.3766L8.69018 17.6584L6.68982 18.885C2.87162 21.2262 2.87162 26.7738 6.68982 29.115L8.69018 30.3416L8.14302 32.6234C7.09862 36.9786 11.0214 40.9014 15.3767 39.857L17.6585 39.3098L18.8851 41.3102C21.2262 45.1284 26.7738 45.1284 29.115 41.3102L30.3416 39.3098L32.6234 39.857C36.9788 40.9014 40.9016 36.9786 39.8572 32.6234L39.31 30.3416L41.3104 29.115C45.1286 26.7738 45.1286 21.2262 41.3104 18.885L39.31 17.6584L39.8572 15.3766C40.9016 11.0213 36.9788 7.0985 32.6234 8.1429ZM22.295 8.7806C23.0754 7.50786 24.9246 7.50786 25.705 8.7806L27.6908 12.019C28.1434 12.7573 29.02 13.1204 29.8622 12.9184L33.5562 12.0326C35.008 11.6845 36.3156 12.9921 35.9674 14.4439L35.0816 18.1379C34.8796 18.9801 35.2426 19.8565 35.981 20.3092L39.2194 22.295C40.4922 23.0754 40.4922 24.9246 39.2194 25.705L35.981 27.6906C35.2426 28.1434 34.8796 29.0198 35.0816 29.862L35.9674 33.556C36.3156 35.0078 35.008 36.3154 33.5562 35.9672L29.8622 35.0814C29.02 34.8796 28.1434 35.2426 27.6908 35.9808L25.705 39.2194C24.9246 40.492 23.0754 40.492 22.295 39.2194L20.3094 35.9808C19.8567 35.2426 18.9802 34.8796 18.138 35.0814L14.444 35.9672C12.9922 36.3154 11.6846 35.0078 12.0327 33.556L12.9186 29.862C13.1205 29.0198 12.7575 28.1434 12.0191 27.6906L8.78072 25.705C7.50798 24.9246 7.50798 23.0754 8.78072 22.295L12.0191 20.3092C12.7575 19.8565 13.1205 18.9801 12.9186 18.1379L12.0327 14.4439C11.6846 12.9921 12.9922 11.6845 14.444 12.0326L18.138 12.9184C18.9802 13.1204 19.8567 12.7573 20.3094 12.019L22.295 8.7806Z" fill="black"/>
</svg>
