<svg width="178" height="128" viewBox="0 0 178 128" fill="none" xmlns="http://www.w3.org/2000/svg">
<path d="M177.123 19.7156C175.832 17.3053 173.318 15.7923 170.581 15.7923H122.076C113.926 6.71439 102.133 0.958984 88.9983 0.958984C75.8632 0.958984 64.0785 6.71439 55.9277 15.7923H7.41579C4.67907 15.7923 2.16484 17.3053 0.874345 19.7156C-0.408844 22.1186 -0.275345 25.0482 1.24529 27.325L23.7472 61.0853C27.3739 66.5216 32.2021 71.0605 37.8908 74.4648L30.0439 98.999C28.8646 103.315 30.4739 107.751 34.1451 110.302C37.6012 112.712 41.992 112.816 45.5221 110.636L57.0698 104.895C57.552 104.658 57.982 104.747 58.249 104.851C58.5233 104.962 58.8869 105.207 59.0573 105.711L63.93 120.003C65.3985 124.253 69.3145 127.041 73.7717 127.041C73.9052 127.041 74.0387 127.041 74.1722 127.034C78.7929 126.863 82.6866 123.748 83.6729 119.862L89.0056 104.784L94.1453 119.276C95.3172 123.748 99.2033 126.863 103.824 127.034C103.965 127.041 104.091 127.041 104.224 127.041C108.689 127.041 112.605 124.253 114.066 119.995L118.939 105.718C119.117 105.206 119.48 104.962 119.755 104.85C120.029 104.746 120.452 104.657 120.934 104.895L132.482 110.635C136.005 112.816 140.403 112.712 143.859 110.302C147.53 107.75 149.139 103.315 147.864 98.7021L140.113 74.4648C145.802 71.0605 150.623 66.5143 154.249 61.0853L176.751 27.325C178.272 25.0479 178.413 22.1186 177.123 19.7156ZM44.499 45.4586C44.499 47.7132 44.7215 49.9159 45.0479 52.0818L42.5855 59.7729C40.0417 57.8149 37.8536 55.486 36.0885 52.8532L21.2701 30.6257H47.0949C45.448 35.2755 44.499 40.2522 44.499 45.4586ZM73.8611 103.175L73.0973 100.913C71.577 96.4775 68.2173 92.9099 63.8786 91.1299C61.8983 90.3139 59.7995 89.9134 57.7004 89.9134C55.2234 89.9134 52.7387 90.4846 50.4619 91.6117L47.5027 93.0802L53.9774 72.8701C54.0368 72.9518 54.1258 73.0185 54.1849 73.0999C55.5867 74.8649 57.1292 76.5041 58.7833 78.032C59.0058 78.2396 59.221 78.4398 59.4508 78.6401C61.1568 80.1604 62.9663 81.5621 64.8947 82.8157C65.0432 82.9047 65.1989 82.9937 65.347 83.0827C69.3371 85.6043 73.7425 87.4955 78.4522 88.6452C78.6152 88.6824 78.7637 88.7637 78.9344 88.8009L73.8611 103.175ZM94.6869 52.8751L89.0282 60.4251L83.3694 52.8751H74.1653L78.9639 45.4586L73.9428 38.1756H83.3694L88.9986 30.6257L94.6873 38.1756H104.121L99.0409 45.4586L103.832 52.8751H94.6869ZM127.543 91.6194C123.352 89.5279 118.465 89.3499 114.119 91.1299C109.78 92.9099 106.428 96.4771 104.907 100.92L104.143 103.145L99.0778 88.8009C99.2335 88.7637 99.3743 88.6897 99.5301 88.6525C104.24 87.5028 108.645 85.6116 112.635 83.0973C112.798 82.9934 112.962 82.9044 113.125 82.8008C115.038 81.5621 116.833 80.168 118.531 78.6623C118.776 78.4471 119.014 78.2246 119.251 78.0021C120.882 76.4892 122.41 74.8649 123.797 73.1221C123.871 73.0331 123.96 72.9664 124.027 72.8701L124.064 72.9813C124.064 72.9886 124.071 72.9963 124.079 73.0109L130.502 93.0875L127.543 91.6194ZM141.909 52.8529C140.158 55.4857 137.963 57.8146 135.412 59.7726L132.949 52.0741C133.276 49.9086 133.498 47.7132 133.498 45.4586C133.498 44.2498 133.439 43.0185 133.313 41.7429C132.987 37.8714 132.156 34.1557 130.903 30.6253H156.727L141.909 52.8529Z" fill="black"/>
</svg>
