<svg width="213" height="107" viewBox="0 0 213 107" fill="none" xmlns="http://www.w3.org/2000/svg">
<path d="M211.95 4.93639C210.406 2.05218 207.397 0.250427 204.122 0.250427H106.498H8.87398C5.59913 0.250427 2.59053 2.05218 1.04629 4.93639C-0.489211 7.82061 -0.329462 11.3176 1.49018 14.0508L28.4166 54.4406C34.913 64.1853 42.2615 73.0867 58.3874 76.1577C66.916 94.2093 85.2518 106.75 106.498 106.75C127.754 106.75 146.081 94.2093 154.618 76.1577C170.744 73.0871 178.083 64.1853 184.58 54.4406L211.506 14.0508C213.326 11.3176 213.495 7.82061 211.95 4.93639ZM66.4634 18.5063C64.6529 20.5743 63.0022 22.7842 61.5291 25.118C61.2895 25.482 61.0677 25.8635 60.8368 26.2362C59.3991 28.6412 58.139 31.1439 57.0827 33.771C56.9409 34.1259 56.8165 34.4986 56.6834 34.8627C55.6629 37.5784 54.8196 40.3827 54.2605 43.294C54.2073 43.5515 54.1806 43.8177 54.1361 44.084C53.5857 47.1458 53.2488 50.2788 53.2488 53.5004C53.2488 54.2459 53.2667 55.0002 53.302 55.7456C49.1219 53.1984 46.4149 49.4268 43.1846 44.5986L25.4525 18.0004H66.8362C66.703 18.1602 66.6053 18.3465 66.4634 18.5063ZM124.523 62.2242H113.581L106.809 71.25L100.038 62.2242H89.0238L94.7568 53.3494L88.7484 44.6252H100.037L106.773 35.5994L113.581 44.6252H124.861L118.782 53.3494L124.523 62.2242ZM169.812 44.5986C166.591 49.4264 163.875 53.1984 159.695 55.7456C159.73 55.0002 159.748 54.2459 159.748 53.5004C159.748 50.2876 159.411 47.1458 158.869 44.0931C158.816 43.8269 158.798 43.5519 158.745 43.2857C158.177 40.3836 157.334 37.5792 156.313 34.8635C156.18 34.4995 156.065 34.1267 155.914 33.7719C154.867 31.1448 153.598 28.642 152.16 26.2458C151.938 25.8643 151.707 25.4824 151.476 25.1097C149.994 22.7754 148.343 20.5747 146.533 18.5067C146.4 18.347 146.302 18.1606 146.16 18.0008H187.544L169.812 44.5986Z" fill="black"/>
</svg>
