<svg width="160" height="160" viewBox="0 0 160 160" fill="none" xmlns="http://www.w3.org/2000/svg">
<g id="medal-quality-svgrepo-com (2) 3" clip-path="url(#clip0_3_636)">
<g id="Group">
<g id="Group_2">
<path id="Vector" d="M159.213 53.526C158.053 51.3594 155.793 49.9994 153.333 49.9994H121.193L126.053 39.4592C127.006 37.3992 126.846 34.9926 125.619 33.0725C124.386 31.159 122.273 29.999 119.999 29.999H39.9976C37.7241 29.999 35.611 31.159 34.3775 33.0725C33.1575 34.9926 32.9909 37.3992 33.9441 39.4592L38.8107 49.9994H6.66385C4.2038 49.9994 1.94376 51.3594 0.783734 53.526C-0.369726 55.6927 -0.242848 58.3196 1.11718 60.3662L21.3441 90.7137C27.3243 99.6738 35.3044 108.974 49.6381 110.001H66.505L73.9452 126.127C75.0386 128.494 77.4052 130.001 79.9987 130.001C82.5988 130.001 84.9588 128.494 86.0523 126.127L93.499 110.001L110.846 109.987C124.693 108.974 132.68 99.6735 138.653 90.7133L158.88 60.3662C160.24 58.3196 160.373 55.693 159.213 53.526ZM50.1313 96.6869C43.4977 96.2003 38.531 92.4534 32.4375 83.3132L19.1238 63.3328H44.9643L55.7379 86.6733L60.3515 96.68L50.1313 96.6869ZM127.56 83.3135C121.466 92.4537 116.506 96.2003 110.359 96.6672H99.6525L115.039 63.3331H140.873L127.56 83.3135Z" fill="black"/>
</g>
</g>
</g>
<defs>
<clipPath id="clip0_3_636">
<rect width="160" height="160" fill="white"/>
</clipPath>
</defs>
</svg>
