<svg width="52" height="52" viewBox="0 0 52 52" fill="none" xmlns="http://www.w3.org/2000/svg">
<g id="shopping-bag-svgrepo-com 3">
<path id="Vector" fill-rule="evenodd" clip-rule="evenodd" d="M35.8117 13.0001C35.7712 12.8252 35.7292 12.65 35.6852 12.4746C35.1132 10.1864 34.2125 7.70005 32.7437 5.74175C31.2292 3.72246 29.0179 2.16675 26 2.16675C22.982 2.16675 20.7707 3.72246 19.2562 5.74175C17.7875 7.70005 16.8867 10.1864 16.3147 12.4746C16.2708 12.65 16.2287 12.8252 16.1881 13.0001H12.7207C9.2987 13.0001 6.46275 15.6533 6.23512 19.0677L4.64622 42.9009C4.39612 46.6527 7.37182 49.8334 11.1318 49.8334H40.8681C44.6281 49.8334 47.6038 46.6527 47.3538 42.9009L45.7648 19.0677C45.5373 15.6533 42.7013 13.0001 39.2793 13.0001H35.8117ZM17.3333 23.8334C18.5748 23.8334 19.4958 22.8983 19.5 21.6628C19.5003 21.6112 19.5009 21.5597 19.5018 21.5082C19.5037 21.394 19.5076 21.2216 19.5156 20.9993C19.5314 20.5542 19.5635 19.9117 19.6279 19.1383C19.6737 18.5896 19.7353 17.9804 19.8179 17.3334H32.1821C32.2647 17.9804 32.3262 18.5896 32.3722 19.1384C32.4365 19.9117 32.4686 20.5542 32.4844 20.9993C32.4924 21.2216 32.4963 21.394 32.4983 21.5082C32.4991 21.5613 32.4998 21.6145 32.5 21.6676C32.5 21.6676 32.5 23.8334 34.6667 23.8334C36.8333 23.8334 36.8333 21.6638 36.8333 21.6638C36.8331 21.5879 36.8322 21.5119 36.8309 21.436C36.8286 21.2962 36.824 21.0963 36.8149 20.8446C36.7971 20.3418 36.7614 19.6301 36.6903 18.7785C36.6535 18.3345 36.6065 17.8493 36.5471 17.3334H39.2793C40.42 17.3334 41.3653 18.2178 41.4412 19.356L43.03 43.1893C43.1134 44.4399 42.1215 45.5001 40.8681 45.5001H11.1318C9.8785 45.5001 8.8866 44.4399 8.96995 43.1893L10.5589 19.356C10.6347 18.2178 11.5801 17.3334 12.7207 17.3334H15.4528C15.3934 17.8493 15.3466 18.3345 15.3096 18.7785C15.2386 19.6301 15.2029 20.3418 15.185 20.8446C15.176 21.0963 15.1714 21.2962 15.1691 21.436C15.1678 21.5104 15.1669 21.5849 15.1667 21.6593C15.165 22.8957 16.0947 23.8334 17.3333 23.8334ZM20.656 13.0001H31.3441C30.8431 11.1654 30.1622 9.52184 29.2771 8.34175C28.3541 7.11104 27.3154 6.50008 26 6.50008C24.6846 6.50008 23.6459 7.11104 22.7229 8.34175C21.8378 9.52184 21.1569 11.1654 20.656 13.0001Z" fill="#0F0F0F"/>
</g>
</svg>
