<svg width="30" height="30" viewBox="0 0 30 30" fill="none" xmlns="http://www.w3.org/2000/svg">
<g clip-path="url(#clip0_3_632)">
<path d="M29.4255 6.2586L26.9709 0.804007C26.7507 0.314639 26.264 0 25.7274 0H4.27268C3.73604 0 3.24931 0.314639 3.02912 0.804007L0.574557 6.2586C0.384646 6.68061 0.421647 7.16997 0.672922 7.55861C0.924197 7.94725 1.35538 8.18189 1.81811 8.18189V28.6364C1.81811 29.3894 2.42866 30 3.18176 30H26.8183C27.5714 30 28.182 29.3894 28.182 28.6364V8.18189C28.6447 8.18189 29.0759 7.94716 29.3272 7.55861C29.5784 7.16997 29.6154 6.68052 29.4255 6.2586ZM5.15442 2.7273H24.8457L26.073 5.45441H3.92713L5.15442 2.7273ZM25.4547 27.2727H4.54541V8.18189H25.4547V27.2727Z" fill="black"/>
<path d="M7.70933 23.3913C7.97179 23.6345 8.30424 23.7548 8.63588 23.7548C9.00225 23.7548 9.36771 23.6081 9.63635 23.3181L13.9767 18.6353L15.0963 19.7549C15.3585 20.0171 15.7203 20.1623 16.0868 20.1541C16.4574 20.147 16.8092 19.9892 17.0612 19.7171L20.2037 16.3232C20.444 16.7123 20.8729 16.9725 21.3637 16.9725C22.1168 16.9725 22.7274 16.3619 22.7274 15.6088V13.0634C22.7274 12.3103 22.1168 11.6997 21.3637 11.6997H18.8182C18.0651 11.6997 17.4546 12.3103 17.4546 13.0634C17.4546 13.6435 17.8174 14.1375 18.328 14.3346L16.0228 16.8244L14.9037 15.7052C14.6415 15.443 14.2825 15.2989 13.9136 15.306C13.543 15.313 13.1913 15.4706 12.9393 15.7425L7.63615 21.4642C7.12423 22.0165 7.15696 22.8794 7.70933 23.3913Z" fill="black"/>
</g>
<defs>
<clipPath id="clip0_3_632">
<rect width="30" height="30" fill="white"/>
</clipPath>
</defs>
</svg>
