<svg width="645" height="669" viewBox="0 0 645 669" fill="none" xmlns="http://www.w3.org/2000/svg">
<g filter="url(#filter0_d_8_92)">
<path fill-rule="evenodd" clip-rule="evenodd" d="M322.483 379.207C305.052 379.207 276 335.153 276 309.483C276 283.813 296.813 263 322.483 263C348.153 263 368.966 283.813 368.966 309.483C368.966 335.153 339.914 379.207 322.483 379.207ZM322.483 367.586C325.522 367.586 334.487 359.736 342.581 347.546C351.488 334.13 357.345 318.994 357.345 309.483C357.345 290.227 341.738 274.621 322.483 274.621C303.227 274.621 287.621 290.227 287.621 309.483C287.621 318.994 293.478 334.124 302.385 347.546C310.479 359.736 319.444 367.586 322.483 367.586ZM322.483 321.103C328.903 321.103 334.103 315.903 334.103 309.483C334.103 303.062 328.903 297.862 322.483 297.862C316.062 297.862 310.862 303.062 310.862 309.483C310.862 315.903 316.062 321.103 322.483 321.103Z" fill="white"/>
</g>
<defs>
<filter id="filter0_d_8_92" x="0.137939" y="0.931043" width="644.69" height="667.931" filterUnits="userSpaceOnUse" color-interpolation-filters="sRGB">
<feFlood flood-opacity="0" result="BackgroundImageFix"/>
<feColorMatrix in="SourceAlpha" type="matrix" values="0 0 0 0 0 0 0 0 0 0 0 0 0 0 0 0 0 0 127 0" result="hardAlpha"/>
<feOffset dy="13.7931"/>
<feGaussianBlur stdDeviation="137.931"/>
<feColorMatrix type="matrix" values="0 0 0 0 0 0 0 0 0 0 0 0 0 0 0 0 0 0 0.1 0"/>
<feBlend mode="normal" in2="BackgroundImageFix" result="effect1_dropShadow_8_92"/>
<feBlend mode="normal" in="SourceGraphic" in2="effect1_dropShadow_8_92" result="shape"/>
</filter>
</defs>
</svg>
