<svg width="617" height="150" viewBox="0 0 617 150" fill="none" xmlns="http://www.w3.org/2000/svg">
<path d="M149.999 74.0391C149.823 59.7544 145.567 45.8172 137.731 33.8689C129.895 21.9207 118.807 12.4591 105.772 6.59836C92.7354 0.737636 78.2956 -1.27806 64.1521 0.788516C50.0088 2.85519 36.7507 8.91802 25.9394 18.2633C15.128 27.6085 7.21373 39.8468 3.12845 53.5368C-0.956729 67.227 -1.0428 81.7985 2.88057 95.536C6.80393 109.274 14.5732 121.604 25.2735 131.076C35.9737 140.548 49.1593 146.767 63.2774 149V95.8715H44.5269V74.0391H63.2774V57.454C62.8433 53.5978 63.2614 49.6932 64.5027 46.016C65.744 42.3388 67.7775 38.9787 70.4598 36.1728C73.142 33.3668 76.4074 31.1835 80.0263 29.7769C83.6452 28.3703 87.5293 27.7746 91.4032 28.0321C97.0265 28.109 102.637 28.6103 108.185 29.5313V48.2716H98.8097C97.1934 48.0678 95.5508 48.2297 94.0058 48.7453C92.4598 49.261 91.0497 50.1171 89.8797 51.2505C88.7097 52.3839 87.8097 53.7656 87.2462 55.2933C86.6818 56.8215 86.469 58.4566 86.6218 60.0776V74.2265H107.435L104.06 96.0589H86.7156V148.531C104.434 145.731 120.561 136.675 132.172 123.008C143.782 109.341 150.106 91.9679 149.999 74.0391Z" fill="url(#paint0_linear_49_121)"/>
<path d="M312 36.4561C304.383 36.4561 296.938 38.7126 290.605 42.9401C284.272 47.1676 279.336 53.1764 276.422 60.2064C273.507 67.2367 272.744 74.9727 274.23 82.4357C275.716 89.8986 279.384 96.7544 284.77 102.135C290.155 107.515 297.017 111.179 304.487 112.664C311.958 114.148 319.7 113.386 326.737 110.474C333.774 107.563 339.788 102.632 344.019 96.3049C348.252 89.9774 350.51 82.5389 350.51 74.9296C350.522 69.8736 349.535 64.8654 347.604 60.1923C345.672 55.5184 342.837 51.2723 339.258 47.6972C335.68 44.1221 331.43 41.2886 326.752 39.3595C322.074 37.4305 317.061 36.4438 312 36.4561ZM312 99.9843C307.04 99.9843 302.191 98.5148 298.067 95.7616C293.944 93.0094 290.729 89.0963 288.831 84.5179C286.933 79.9396 286.436 74.9024 287.404 70.0416C288.371 65.1817 290.76 60.7169 294.267 57.213C297.774 53.7093 302.243 51.3231 307.107 50.3564C311.973 49.3897 317.015 49.8858 321.597 51.7822C326.18 53.6785 330.097 56.8902 332.852 61.0096C335.607 65.1301 337.078 69.974 337.078 74.9296C337.078 81.5742 334.436 87.9477 329.733 92.6462C325.03 97.3447 318.651 99.9843 312 99.9843ZM361.123 34.8608C361.123 36.7169 360.573 38.5311 359.541 40.0742C358.508 41.6174 357.041 42.8202 355.325 43.5303C353.609 44.2406 351.72 44.4264 349.898 44.0644C348.076 43.7023 346.403 42.8085 345.089 41.4962C343.776 40.1839 342.881 38.5119 342.518 36.6916C342.156 34.8712 342.342 32.9845 343.053 31.2698C343.764 29.5552 344.968 28.0897 346.512 27.0586C348.057 26.0274 349.873 25.477 351.731 25.477C354.222 25.477 356.611 26.4657 358.372 28.2255C360.134 29.9853 361.123 32.3722 361.123 34.8608ZM386.577 44.2446C386.851 32.579 382.495 21.2787 374.461 12.8089C366.028 4.67961 354.712 0.224836 342.996 0.422271C330.785 -0.140757 293.215 -0.140757 281.004 0.422271C269.331 0.169753 258.028 4.51839 249.539 12.5274C241.505 20.9972 237.15 32.2975 237.423 43.9631C236.859 56.162 236.859 93.6972 237.423 105.896C237.15 117.562 241.505 128.862 249.539 137.332C258.028 145.341 269.331 149.689 281.004 149.437C293.403 150.188 330.597 150.188 342.996 149.437C354.672 149.71 365.983 145.359 374.461 137.332C382.495 128.862 386.851 117.562 386.577 105.896C387.141 93.6972 387.141 56.162 386.577 43.9631V44.2446ZM370.61 119.315C369.334 122.543 367.41 125.474 364.954 127.927C362.497 130.381 359.564 132.304 356.333 133.578C341.752 136.524 326.846 137.534 312 136.581C297.186 137.535 282.31 136.525 267.761 133.578C264.53 132.304 261.596 130.381 259.14 127.927C256.685 125.474 254.759 122.543 253.484 119.315C249.539 109.368 250.384 85.9086 250.384 75.0234C250.384 64.1382 249.539 40.5849 253.484 30.732C254.723 27.4727 256.635 24.5102 259.094 22.0367C261.554 19.5634 264.507 17.6342 267.761 16.3747C282.31 13.428 297.186 12.4183 312 13.3719C326.846 12.4199 341.752 13.4296 356.333 16.3747C359.564 17.6489 362.497 19.5723 364.954 22.0259C367.41 24.4793 369.334 27.4107 370.61 30.6381C374.555 40.585 373.616 64.0444 373.616 74.9296C373.616 85.8148 374.555 109.368 370.61 119.221V119.315Z" fill="url(#paint1_linear_49_121)"/>
<path d="M612.76 2.96778C611.081 1.51218 609.036 0.545507 606.849 0.172457C604.661 -0.200593 602.413 0.0341943 600.349 0.851395L459.733 56.2964C457.282 57.2628 455.209 58.9998 453.823 61.2475C452.438 63.4952 451.815 66.1327 452.048 68.7654C452.28 71.398 453.356 73.8843 455.114 75.8521C456.872 77.82 459.217 79.1636 461.8 79.682L497.517 86.8519V131.628C497.515 134.049 498.229 136.416 499.568 138.43C500.907 140.443 502.811 142.012 505.04 142.939C507.268 143.865 509.72 144.107 512.086 143.634C514.451 143.16 516.623 141.993 518.327 140.28L538.094 120.441L568.095 146.939C570.304 148.907 573.154 149.996 576.108 150C577.392 149.999 578.668 149.795 579.89 149.398C581.904 148.757 583.716 147.596 585.145 146.033C586.573 144.469 587.568 142.557 588.03 140.487L616.689 14.9731C617.188 12.8027 617.085 10.5367 616.393 8.42051C615.7 6.30431 614.444 4.41863 612.76 2.96778ZM502.2 75.314L464.192 67.6846L570.617 25.7208L502.2 75.314ZM509.708 131.622V95.3693L528.923 112.341L509.708 131.622ZM576.148 137.753L513.372 82.3077L603.769 16.7822L576.148 137.753Z" fill="url(#paint2_linear_49_121)"/>
<defs>
<linearGradient id="paint0_linear_49_121" x1="75" y1="0" x2="75" y2="149" gradientUnits="userSpaceOnUse">
<stop stop-color="white"/>
<stop offset="1" stop-color="#3C3C3C" stop-opacity="0"/>
</linearGradient>
<linearGradient id="paint1_linear_49_121" x1="312" y1="0" x2="312" y2="150" gradientUnits="userSpaceOnUse">
<stop stop-color="white"/>
<stop offset="1" stop-color="white" stop-opacity="0"/>
</linearGradient>
<linearGradient id="paint2_linear_49_121" x1="534.5" y1="0" x2="534.5" y2="150" gradientUnits="userSpaceOnUse">
<stop stop-color="white"/>
<stop offset="0.510904" stop-color="white" stop-opacity="0.489096"/>
<stop offset="1" stop-color="white" stop-opacity="0"/>
</linearGradient>
</defs>
</svg>
