<svg width="198" height="335" viewBox="0 0 198 335" fill="none" xmlns="http://www.w3.org/2000/svg">
<path d="M157.086 40.5826C141.539 25.0351 120.851 16.4727 98.8343 16.4727C76.8173 16.4727 56.1294 25.0351 40.5823 40.5826C25.0348 56.13 16.4724 76.8176 16.4724 98.8346C16.4724 120.852 25.0348 141.539 40.5823 157.087C56.1294 172.634 76.8173 181.197 98.8343 181.197C120.851 181.197 141.539 172.634 157.086 157.087C172.634 141.539 181.196 120.852 181.196 98.8346C181.196 76.8176 172.634 56.13 157.086 40.5826ZM98.8343 175.883C56.3497 175.883 21.786 141.319 21.786 98.8346C21.786 56.35 56.3497 21.7863 98.8343 21.7863C141.319 21.7863 175.883 56.35 175.883 98.8346C175.883 141.319 141.319 175.883 98.8343 175.883Z" fill="white" stroke="white" stroke-width="0.590408"/>
<path d="M98.8343 162.599C63.6748 162.599 35.0702 133.994 35.0702 98.8346C35.0702 97.3673 33.881 96.1777 32.4134 96.1777C30.9457 96.1777 29.7565 97.3673 29.7565 98.8346C29.7565 117.3 36.9378 134.651 49.9779 147.691C63.0177 160.731 80.3686 167.912 98.8343 167.912C100.302 167.912 101.491 166.723 101.491 165.256C101.491 163.788 100.302 162.599 98.8343 162.599Z" fill="white" stroke="white" stroke-width="0.590408"/>
<path d="M98.8344 35.0703C113.993 35.0703 128.678 40.469 140.183 50.2716C140.683 50.6978 141.295 50.9064 141.904 50.9064C142.656 50.9064 143.402 50.5894 143.928 49.9727C144.88 48.8557 144.746 47.1787 143.629 46.2272C131.164 35.6059 115.255 29.7566 98.8344 29.7566C97.3668 29.7566 96.1776 30.9461 96.1776 32.4134C96.1776 33.8807 97.3668 35.0703 98.8344 35.0703Z" fill="white" stroke="white" stroke-width="0.590408"/>
<path d="M151.443 54.041C150.491 52.9241 148.814 52.7902 147.697 53.7417C146.581 54.6935 146.446 56.3702 147.398 57.4871C157.2 68.9919 162.598 83.6757 162.598 98.8342C162.598 100.302 163.788 101.491 165.255 101.491C166.723 101.491 167.912 100.302 167.912 98.8342C167.912 82.4139 162.063 66.5062 151.443 54.041Z" fill="white" stroke="white" stroke-width="0.590408"/>
<path d="M98.8344 43.041C97.3668 43.041 96.1776 44.2306 96.1776 45.6979C96.1776 47.1651 97.3668 48.3547 98.8344 48.3547C126.669 48.3547 149.314 70.9998 149.314 98.8346C149.314 100.302 150.504 101.491 151.971 101.491C153.439 101.491 154.628 100.302 154.628 98.8346C154.628 83.9198 148.828 69.9059 138.296 59.3735C127.763 48.8411 113.749 43.041 98.8344 43.041Z" fill="white" stroke="white" stroke-width="0.590408"/>
<path d="M74.5536 149.091C74.9263 149.271 75.3202 149.356 75.7085 149.356C76.6954 149.356 77.6437 148.804 78.1021 147.855C78.7412 146.534 78.1878 144.946 76.8669 144.307C59.2797 135.804 48.3544 118.38 48.3544 98.8346C48.3544 97.3673 47.1652 96.1777 45.6975 96.1777C44.2299 96.1777 43.0407 97.3673 43.0407 98.8346C43.0407 109.531 46.0706 119.921 51.8019 128.881C57.3813 137.604 65.2487 144.592 74.5536 149.091Z" fill="white" stroke="white" stroke-width="0.590408"/>
<path d="M98.8343 149.314C94.6054 149.314 90.4037 148.792 86.3472 147.762C84.926 147.401 83.4792 148.261 83.1182 149.684C82.7573 151.106 83.6174 152.551 85.0397 152.912C89.5234 154.051 94.1643 154.628 98.8343 154.628C100.302 154.628 101.491 153.439 101.491 151.971C101.491 150.504 100.302 149.314 98.8343 149.314Z" fill="white" stroke="white" stroke-width="0.590408"/>
<path d="M98.8343 136.03C88.2144 136.03 78.0791 131.482 71.0264 123.552C70.0509 122.456 68.3721 122.357 67.2753 123.333C66.179 124.308 66.0805 125.987 67.0557 127.083C75.1159 136.146 86.6986 141.344 98.8343 141.344C100.302 141.344 101.491 140.154 101.491 138.687C101.491 137.219 100.302 136.03 98.8343 136.03Z" fill="white" stroke="white" stroke-width="0.590408"/>
<path d="M63.0996 119.164C63.4953 119.164 63.8973 119.076 64.276 118.888C65.591 118.237 66.1294 116.644 65.4787 115.329C62.9309 110.18 61.6387 104.631 61.6387 98.8346C61.6387 97.3673 60.4495 96.1777 58.9818 96.1777C57.5142 96.1777 56.325 97.3673 56.325 98.8346C56.325 105.455 57.8025 111.798 60.7162 117.685C61.1796 118.622 62.1208 119.164 63.0996 119.164Z" fill="white" stroke="white" stroke-width="0.590408"/>
<path d="M98.8344 56.325C97.3668 56.325 96.1776 57.5145 96.1776 58.9818C96.1776 60.4491 97.3668 61.6386 98.8344 61.6386C119.344 61.6386 136.03 78.3246 136.03 98.8344C136.03 100.302 137.219 101.491 138.687 101.491C140.155 101.491 141.344 100.302 141.344 98.8344C141.344 75.3947 122.274 56.325 98.8344 56.325Z" fill="white" stroke="white" stroke-width="0.590408"/>
<path d="M98.8344 91.75C94.9278 91.75 91.7495 94.9283 91.7495 98.8349C91.7495 102.742 94.9278 105.92 98.8344 105.92C102.741 105.92 105.919 102.742 105.919 98.8349C105.919 94.9283 102.741 91.75 98.8344 91.75ZM98.8344 100.606C97.8577 100.606 97.0632 99.8116 97.0632 98.8349C97.0632 97.8582 97.8577 97.0637 98.8344 97.0637C99.811 97.0637 100.606 97.8582 100.606 98.8349C100.606 99.8116 99.811 100.606 98.8344 100.606Z" fill="white" stroke="white" stroke-width="0.590408"/>
<path d="M98.8344 69.4319C82.6216 69.4319 69.432 82.6218 69.432 98.8342C69.432 115.047 82.6216 128.237 98.8344 128.237C115.047 128.237 128.237 115.047 128.237 98.8342C128.237 82.6218 115.047 69.4319 98.8344 69.4319ZM98.8344 122.923C85.552 122.923 74.7457 112.117 74.7457 98.8342C74.7457 85.5518 85.552 74.7456 98.8344 74.7456C112.117 74.7456 122.923 85.5518 122.923 98.8342C122.923 112.117 112.117 122.923 98.8344 122.923Z" fill="white" stroke="white" stroke-width="0.590408"/>
<path d="M69.2928 297.154C62.1248 297.154 55.9808 295.586 50.8608 292.45C45.7408 289.314 41.8688 285.026 39.2448 279.586C36.6208 274.146 35.3088 267.97 35.3088 261.058C35.3088 253.122 36.8128 246.37 39.8208 240.802C42.8288 235.234 47.1168 231.042 52.6848 228.226C58.3169 225.346 64.9729 223.906 72.6529 223.906C77.0689 223.906 81.4529 224.226 85.8049 224.866C90.1569 225.506 93.8368 226.178 96.8448 226.882L95.6929 245.41H84.1729L81.4849 232.738C80.9089 232.098 79.8529 231.554 78.3168 231.106C76.8448 230.594 74.8288 230.338 72.2689 230.338C66.5728 230.338 62.1568 232.866 59.0208 237.922C55.8848 242.914 54.3168 250.178 54.3168 259.714C54.3168 269.186 55.6288 276.706 58.2529 282.274C60.9409 287.778 65.1009 290.53 70.7329 290.53C73.0369 290.53 75.1169 290.242 76.9728 289.666C78.8928 289.026 80.3328 288.226 81.2928 287.266V267.202L72.3648 266.242V259.234H102.317V266.242L97.5169 267.01V292.258C96.4289 292.322 93.9009 292.834 89.9329 293.794C86.0289 294.818 82.5089 295.618 79.3729 296.194C76.2369 296.834 72.8769 297.154 69.2928 297.154ZM105.204 289.762L112.596 288.802V232.738L105.588 231.394V224.77H120.372C121.588 224.77 122.9 224.738 124.308 224.674C125.78 224.61 126.9 224.546 127.668 224.482C131.124 224.226 134.068 224.098 136.5 224.098C143.348 224.098 148.788 224.77 152.82 226.114C156.852 227.394 159.764 229.442 161.556 232.258C163.412 235.01 164.34 238.658 164.34 243.202C164.34 247.554 163.188 251.618 160.884 255.394C158.58 259.17 155.188 261.762 150.708 263.17C153.652 264.258 156.116 266.306 158.1 269.314C160.148 272.258 162.26 276.034 164.436 280.642C165.716 283.33 166.74 285.346 167.508 286.69C168.276 287.97 169.076 288.706 169.908 288.898L172.692 289.762V296.098H154.452C153.492 296.098 152.5 295.074 151.476 293.026C150.452 290.978 149.14 287.778 147.54 283.426C145.556 278.114 143.828 274.018 142.356 271.138C140.948 268.194 139.38 266.402 137.652 265.762H129.012V288.802L137.556 289.762V296.098H105.204V289.762ZM136.404 259.522C139.732 259.522 142.324 258.242 144.18 255.682C146.036 253.058 146.964 249.122 146.964 243.874C146.964 239.266 146.036 235.906 144.18 233.794C142.388 231.618 139.348 230.53 135.06 230.53C132.756 230.53 130.74 230.69 129.012 231.01V259.234C129.844 259.426 131.22 259.522 133.14 259.522C135.06 259.522 136.148 259.522 136.404 259.522Z" fill="white"/>
</svg>
