<svg width="105" height="93" viewBox="0 0 105 93" fill="none" xmlns="http://www.w3.org/2000/svg">
<path fill-rule="evenodd" clip-rule="evenodd" d="M92.8451 23.8661C92.8442 23.8685 92.8437 23.8708 92.8429 23.8732L74.7017 75.2658C71.3316 84.7783 56.2276 84.937 52.6455 75.4713L52.6419 75.4612L47.2516 61.3906C45.4407 56.5153 41.1123 52.8271 35.7462 51.2498C35.7444 51.2494 35.7426 51.2487 35.7408 51.2483L19.7583 46.4979C9.0457 43.3302 9.23874 29.9453 19.8887 26.993C19.8903 26.9926 19.892 26.9921 19.8936 26.9917L78.3464 11.01L78.3632 11.0054C87.2342 8.53425 95.6106 15.8636 92.8451 23.8661ZM76.3807 5.43783C90.4574 1.52315 103.457 13.1953 99.168 25.5788L81.0154 77.0041C75.7537 91.8552 52.0172 92.2197 46.3746 77.3255C46.3737 77.3236 46.3728 77.3216 46.3724 77.3197L40.9809 63.246L40.9702 63.2176C39.8357 60.153 37.107 57.8 33.6526 56.7857L33.641 56.7822L17.6566 52.0314C17.6563 52.031 17.6569 52.0314 17.6566 52.0314C0.905574 47.0772 1.10249 26.0773 17.9136 21.4234L76.3719 5.44028C76.375 5.43947 76.3777 5.43865 76.3807 5.43783Z" fill="white"/>
<path d="M17.6566 52.0314L33.641 56.7822L33.6526 56.7857C37.107 57.8 39.8357 60.153 40.9702 63.2176L40.9808 63.246L46.3724 77.3197C46.3728 77.3216 46.3737 77.3236 46.3746 77.3255C52.0172 92.2197 75.7537 91.8552 81.0154 77.0041L99.168 25.5788C103.457 13.1953 90.4574 1.52315 76.3807 5.43783C76.3777 5.43865 76.375 5.43947 76.3719 5.44028L17.9136 21.4234C1.10249 26.0773 0.905574 47.0772 17.6566 52.0314ZM17.6566 52.0314C17.6563 52.031 17.6569 52.0314 17.6566 52.0314ZM92.8451 23.8661C92.8442 23.8685 92.8437 23.8708 92.8429 23.8732L74.7017 75.2658C71.3316 84.7783 56.2276 84.937 52.6455 75.4713L52.6419 75.4612L47.2516 61.3906C45.4407 56.5153 41.1123 52.8271 35.7462 51.2498C35.7444 51.2494 35.7426 51.2487 35.7408 51.2483L19.7583 46.4979C9.0457 43.3302 9.23874 29.9453 19.8887 26.993C19.8903 26.9926 19.892 26.9921 19.8936 26.9917L78.3464 11.01L78.3632 11.0054C87.2342 8.53425 95.6106 15.8636 92.8451 23.8661Z" stroke="white" stroke-width="8.95833"/>
</svg>
