<svg width="100" height="93" viewBox="0 0 100 93" fill="none" xmlns="http://www.w3.org/2000/svg">
<path d="M39.4933 23.1519C38.5529 20.2847 37.8909 17.3072 37.536 14.246C37.1871 11.2373 34.3179 9 31.0099 9H15.6653C11.7194 9 8.67971 12.117 9.02706 15.712C12.5259 51.9271 44.0663 80.7751 83.6615 83.9752C87.592 84.2929 91 81.5228 91 77.914V65.4022C91 60.8342 88.5537 58.2191 85.2643 57.9001C81.9174 57.5755 78.6621 56.97 75.5273 56.11C71.6927 55.058 67.5416 56.0482 64.7106 58.6373L58.1443 64.6431C46.3159 58.7878 36.5652 49.8696 30.1635 39.0509L36.7298 33.0449C39.5606 30.4558 40.6435 26.6589 39.4933 23.1519Z" stroke="white" stroke-width="16.6667" stroke-linecap="round" stroke-linejoin="round"/>
</svg>
